<?xml version="1.0" encoding="utf-8"?>
<!-- Generator: Adobe Illustrator 27.9.0, SVG Export Plug-In . SVG Version: 6.00 Build 0)  -->
<svg width="590" heifht="100" version="1.1" id="Layer_1" xmlns="http://www.w3.org/2000/svg" xmlns:xlink="http://www.w3.org/1999/xlink" x="0px" y="0px"
	 viewBox="0 0 590 100" style="enable-background:new 0 0 590 100;" xml:space="preserve">
<style type="text/css">
	.artworkpath{fill:#572DFF;}
</style>
<g>
	<path class="artworkpath" d="M386.92,98.56c-5.45,0-10.51-0.56-15.04-1.68c-4.63-1.14-8.68-3.13-12.02-5.9c-3.36-2.79-6-6.55-7.83-11.16
		c-1.81-4.55-2.73-10.29-2.73-17.06V30.78c0-2.4,1.43-3.83,3.83-3.83H372c2.47,0,3.95,1.43,3.95,3.83v31.15
		c0,4.44,0.82,7.67,2.44,9.59c1.56,1.85,4.42,2.79,8.52,2.79c4.1,0,6.99-0.94,8.59-2.8c1.65-1.93,2.49-5.15,2.49-9.58v-18.9
		c0-2.74-0.26-5.21-0.77-7.35c-0.48-2-1.36-3.62-2.69-4.95c-1.33-1.33-3.25-2.38-5.72-3.12c-2.57-0.77-5.95-1.16-10.06-1.16H350.8
		c-2.47,0-3.95-1.43-3.95-3.83V6.05c0-2.4,1.48-3.83,3.95-3.83h27.38c7.93,0,14.88,0.76,20.65,2.27c5.86,1.53,10.76,3.93,14.57,7.13
		c3.84,3.23,6.71,7.43,8.54,12.48c1.8,4.97,2.71,10.95,2.71,17.78v20.89c0,6.77-0.92,12.51-2.73,17.06
		c-1.83,4.61-4.49,8.37-7.9,11.17l0,0c-3.38,2.77-7.44,4.76-12.07,5.9C397.43,98,392.37,98.56,386.92,98.56z M353.13,29.95
		c-0.72,0-0.83,0.11-0.83,0.83v31.97c0,6.39,0.85,11.76,2.52,15.96c1.65,4.14,3.99,7.49,6.96,9.96c2.99,2.49,6.63,4.27,10.82,5.3
		c4.29,1.05,9.11,1.59,14.32,1.59s10.03-0.54,14.32-1.59c4.19-1.03,7.85-2.82,10.88-5.3l0,0c3.01-2.47,5.37-5.82,7.01-9.95
		c1.67-4.2,2.52-9.56,2.52-15.96V41.87c0-6.48-0.85-12.12-2.53-16.76c-1.65-4.55-4.22-8.32-7.65-11.21
		c-3.46-2.91-7.97-5.11-13.39-6.52c-5.53-1.44-12.22-2.17-19.9-2.17H350.8c-0.9,0-0.95,0.2-0.95,0.83v16.57
		c0,0.63,0.04,0.83,0.95,0.83h27.96c4.4,0,8.07,0.43,10.92,1.29c2.95,0.89,5.3,2.19,6.98,3.88c1.7,1.71,2.88,3.85,3.48,6.37
		c0.57,2.37,0.86,5.08,0.86,8.05v18.9c0,5.24-1.05,9.02-3.22,11.54c-2.19,2.55-5.85,3.85-10.87,3.85c-5.03,0-8.67-1.3-10.82-3.86
		c-2.12-2.52-3.15-6.29-3.15-11.52V30.78c0-0.63-0.04-0.83-0.95-0.83H353.13z M584.88,96.81H561.7c-2.08,0-3.56-1.02-4.08-2.81
		L545.1,70.22c-0.34-0.67-0.53-1.4-0.58-2.18c-0.06-0.93,0.21-1.83,0.8-2.66l11.51-17c0.81-1.28,1.77-1.94,2.84-1.94
		c0.01,0,0.03,0,0.04,0c1.07,0.02,2.01,0.7,2.79,2.02l25.49,43.57c0.6,1.39,0.61,2.54,0.02,3.44
		C587.44,96.36,586.38,96.81,584.88,96.81z M559.67,49.59c-0.08,0.09-0.19,0.23-0.32,0.44L547.79,67.1
		c-0.27,0.37-0.28,0.6-0.27,0.75c0.03,0.38,0.11,0.72,0.25,1.01l12.65,24.05l0.04,0.18c0.08,0.34,0.18,0.73,1.22,0.73h23.19
		c0.26,0,0.44-0.02,0.56-0.04c-0.02-0.11-0.07-0.26-0.15-0.47l-25.35-43.32C559.83,49.8,559.74,49.67,559.67,49.59z M533.61,96.81
		h-19.11c-2.4,0-3.83-1.48-3.83-3.95V5.93c0-2.29,1.47-3.72,3.83-3.72h19.11c2.47,0,3.95,1.39,3.95,3.72v25.36l16.21-26.5
		c0.49-0.78,0.98-1.36,1.5-1.79c0.66-0.53,1.49-0.8,2.45-0.8h23.42c1.71,0,2.59,0.76,3.04,1.4c0.5,0.72,0.86,1.95-0.26,3.7
		l-46.37,68.73v16.81C537.56,95.33,536.09,96.81,533.61,96.81z M514.51,5.21c-0.83,0-0.83,0.17-0.83,0.72v86.93
		c0,0.91,0.2,0.95,0.83,0.95h19.11c0.81,0,0.95-0.14,0.95-0.95V75.13l0.26-0.38l46.61-69.08c0.11-0.18,0.17-0.31,0.21-0.4
		c-0.09-0.03-0.25-0.06-0.48-0.06h-23.42c-0.19,0-0.44,0.02-0.58,0.14c-0.17,0.14-0.46,0.43-0.83,1.02l-21.76,35.57V5.93
		c0-0.51,0-0.72-0.95-0.72H514.51z M503.09,96.81h-21.67c-2.11,0-3.59-1.05-4.1-2.88l-9.9-23.51c-1.94,0.17-3.93,0.25-5.92,0.25
		h-1.92c-0.18,0-0.36,0-0.54-0.01v22.31c0,2.4-1.48,3.83-3.95,3.83h-19.11c-2.4,0-3.83-1.43-3.83-3.83V29.85
		c0-2.07,1.06-3.42,2.89-3.75h-1.39c-2.47,0-3.95-1.43-3.95-3.83V6.05c0-2.4,1.48-3.83,3.95-3.83h27.85
		c12.64,0,22.63,2.82,29.71,8.37c7.18,5.64,10.83,13.62,10.83,23.7v2.33c0,5.4-1.01,10.33-2.99,14.63
		c-1.83,3.96-4.5,7.42-7.93,10.29l15.26,30.6c0.48,1.38,0.41,2.52-0.2,3.39C505.56,96.37,504.52,96.81,503.09,96.81z M469.31,67.21
		l10.87,25.86c0.09,0.34,0.18,0.73,1.23,0.73h21.67c0.31,0,0.49-0.03,0.59-0.06c-0.01-0.1-0.03-0.28-0.12-0.55l-16.23-32.51
		l0.98-0.75c3.52-2.71,6.21-6.06,8-9.94c1.8-3.9,2.71-8.4,2.71-13.37v-2.33c0-9.24-3.17-16.22-9.68-21.34
		c-6.53-5.13-15.91-7.73-27.85-7.73h-27.85c-0.9,0-0.95,0.2-0.95,0.83v16.22c0,0.63,0.04,0.83,0.95,0.83h27.85
		c5.8,0,10.06,0.98,13.02,3c3.1,2.12,4.67,5.58,4.67,10.28c0,4.7-1.57,8.18-4.66,10.33c-2.97,2.07-7.23,3.07-13.04,3.07h-1.92
		c-0.72,0-1.46-0.04-2.21-0.13l-1.33-0.15V29.85c0-0.63-0.04-0.83-0.95-0.83h-19.11c-0.72,0-0.83,0.11-0.83,0.83v63.13
		c0,0.72,0.11,0.83,0.83,0.83h19.11c0.9,0,0.95-0.2,0.95-0.83v-25.6l1.67,0.19c0.63,0.07,1.26,0.11,1.87,0.11h1.92
		c2.27,0,4.53-0.12,6.72-0.34L469.31,67.21z M459.03,46.78c0.18,0.01,0.36,0.01,0.54,0.01h1.92c5.1,0,8.91-0.85,11.32-2.53
		c2.27-1.58,3.38-4.16,3.38-7.87c0-3.71-1.1-6.26-3.37-7.8c-2.42-1.65-6.23-2.48-11.33-2.48h-5.43c1.88,0.34,2.97,1.69,2.97,3.75
		V46.78z M320.27,96.81h-18.29c-1.67,0-2.58-0.73-3.05-1.34c-0.54-0.7-0.91-1.6-1.1-2.69l-7.8-38.58l-5.36,28
		c-0.68,2.37-2.18,2.72-3.02,2.72c-0.84,0-2.34-0.35-3.02-2.72l-0.03-0.12l-6.98-35.97c-0.45-1.48-0.49-2.84-0.1-4.04l8.49-36.23
		c0.48-1.93,1.99-3.02,4.14-3.02h11.54c2.15,0,3.66,1.09,4.13,3l9.13,38.64l7.71-39.38c0.69-1.83,2.22-2.84,4.32-2.84h19.46
		c1.8,0,2.71,0.76,3.16,1.4c0.45,0.65,0.82,1.75,0.14,3.36l-19.22,86.89l-0.04,0.1C323.78,95.8,322.29,96.81,320.27,96.81z
		 M291.44,46.12l9.32,46.09c0.12,0.64,0.29,1.11,0.53,1.43c0.12,0.16,0.51,0.17,0.67,0.17h18.29c0.83,0,1.15-0.31,1.36-0.8
		l19.23-86.97l0.06-0.14c0.17-0.37,0.17-0.56,0.17-0.6c-0.02,0.02-0.2-0.08-0.67-0.08h-19.46c-0.91,0-1.26,0.3-1.47,0.79
		l-8.94,45.84l-2.93,0.06L296.9,6.51c-0.08-0.32-0.18-0.71-1.22-0.71h-11.54c-1.04,0-1.14,0.39-1.22,0.73l-8.54,36.4
		c-0.21,0.63-0.17,1.41,0.12,2.34l0.04,0.16l6.98,35.99c0.04,0.13,0.08,0.23,0.11,0.31c0.03-0.08,0.07-0.18,0.11-0.31l6.74-35.28
		L291.44,46.12z M276.57,96.81h-17.01c-2.02,0-3.52-1.01-4.2-2.84l-0.06-0.2L236.11,6.98c-0.68-1.61-0.31-2.72,0.14-3.36
		c0.44-0.64,1.35-1.4,3.16-1.4h19.46c2.1,0,3.63,1.01,4.32,2.84l0.07,0.24l16.78,86.93c0.34,1.36,0.19,2.51-0.47,3.36
		C278.92,96.4,277.92,96.81,276.57,96.81z M258.2,93c0.21,0.5,0.52,0.8,1.36,0.8h17.01c0.38,0,0.58-0.06,0.63-0.09
		c-0.01-0.01,0.04-0.26-0.11-0.84L260.33,6c-0.21-0.49-0.55-0.79-1.47-0.79H239.4c-0.47,0-0.65,0.09-0.69,0.11
		c0.01,0.02,0.02,0.2,0.19,0.56l0.1,0.3L258.2,93z M209.69,96.81H190c-2.36,0-3.83-1.42-3.83-3.72V31.72c0-1.02,0.11-2.17,0.89-2.95
		c0.78-0.78,1.79-0.77,2.68-0.77l0.27,0l19.97,0c0.93-0.01,1.97-0.01,2.77,0.78c0.79,0.78,0.89,1.92,0.89,2.94v61.38
		C213.64,95.42,212.16,96.81,209.69,96.81z M189.21,31c-0.02,0.15-0.04,0.37-0.04,0.72v61.38c0,0.55,0,0.72,0.83,0.72h19.69
		c0.95,0,0.95-0.21,0.95-0.72V31.72c0-0.35-0.02-0.57-0.04-0.71C210.42,31,210.18,31,209.99,31l-0.3,0l-19.98,0
		C189.56,31,189.37,31,189.21,31z M161.69,96.81h-21.67c-2.11,0-3.59-1.05-4.1-2.88l-9.9-23.51c-1.94,0.17-3.93,0.25-5.92,0.25
		h-1.92c-0.18,0-0.36,0-0.54-0.01v22.31c0,2.4-1.48,3.83-3.95,3.83H94.57c-2.4,0-3.83-1.43-3.83-3.83V29.85
		c0-2.07,1.06-3.42,2.89-3.75h-1.39c-2.47,0-3.95-1.43-3.95-3.83V6.05c0-2.4,1.48-3.83,3.95-3.83h27.85
		c12.64,0,22.63,2.82,29.71,8.37c7.18,5.64,10.83,13.62,10.83,23.7v2.33c0,5.4-1.01,10.33-2.99,14.63
		c-1.83,3.96-4.49,7.42-7.93,10.29l15.26,30.6c0.48,1.38,0.41,2.52-0.2,3.38C164.15,96.37,163.12,96.81,161.69,96.81z M127.91,67.21
		l10.87,25.86c0.08,0.34,0.18,0.73,1.22,0.73h21.67c0.31,0,0.49-0.03,0.6-0.06c-0.01-0.1-0.03-0.28-0.12-0.55l-16.23-32.51
		l0.98-0.75c3.52-2.71,6.21-6.06,8-9.94c1.8-3.91,2.72-8.41,2.72-13.37v-2.33c0-9.24-3.17-16.22-9.68-21.34
		c-6.53-5.13-15.9-7.73-27.85-7.73H92.24c-0.9,0-0.95,0.2-0.95,0.83v16.22c0,0.63,0.04,0.83,0.95,0.83h27.85
		c5.8,0,10.06,0.98,13.02,3c3.1,2.12,4.68,5.58,4.68,10.28c0,4.7-1.57,8.18-4.66,10.33c-2.97,2.06-7.23,3.07-13.03,3.07h-1.92
		c-0.72,0-1.46-0.04-2.21-0.13l-1.33-0.15V29.85c0-0.63-0.04-0.83-0.95-0.83H94.57c-0.72,0-0.83,0.11-0.83,0.83v63.13
		c0,0.72,0.11,0.83,0.83,0.83h19.11c0.9,0,0.95-0.2,0.95-0.83v-25.6l1.67,0.19c0.64,0.07,1.27,0.11,1.87,0.11h1.92
		c2.27,0,4.53-0.12,6.72-0.34L127.91,67.21z M117.63,46.78c0.18,0.01,0.36,0.01,0.54,0.01h1.92c5.1,0,8.91-0.85,11.32-2.53
		c2.27-1.58,3.38-4.16,3.38-7.87c0-3.71-1.1-6.26-3.37-7.8c-2.42-1.65-6.23-2.48-11.33-2.48h-5.44c1.88,0.34,2.97,1.69,2.97,3.75
		V46.78z M81.99,96.81H61.13c-2.15,0-3.66-1.09-4.14-3l-2.62-10.18H36.89c-1.77,0-2.7-0.73-3.17-1.34
		c-0.49-0.63-0.94-1.74-0.36-3.41l4.3-15.7c0.91-2.9,2.98-3.32,4.13-3.32h6.45l-4.17-16.17c-0.39-1.22-0.35-2.61,0.13-4.14
		l8.37-30.4c0.68-2.38,2.15-2.74,2.96-2.74c0.79,0,2.23,0.34,3.04,2.63L85.14,92.1c0.57,1.35,0.57,2.49-0.01,3.36
		C84.55,96.36,83.49,96.81,81.99,96.81z M41.79,62.85c-0.35,0-0.88,0-1.25,1.17l-4.33,15.81c-0.15,0.42-0.12,0.6-0.1,0.61
		c0.05,0.06,0.27,0.17,0.79,0.17H56.7l3.2,12.44c0.09,0.35,0.18,0.74,1.23,0.74h20.86c0.26,0,0.44-0.02,0.56-0.04
		c-0.03-0.12-0.08-0.29-0.19-0.54l-0.05-0.14L55.74,10c-0.06-0.16-0.11-0.28-0.16-0.38c-0.04,0.09-0.07,0.19-0.11,0.33L47.08,40.4
		c-0.31,0.98-0.35,1.77-0.14,2.39l0.03,0.1l5.14,19.96H41.79z M24.43,96.81H4.38c-1.81,0-2.71-0.76-3.16-1.41
		c-0.45-0.65-0.83-1.78-0.11-3.43L28.59,5.13c0.71-1.91,2.2-2.91,4.23-2.91h16.43c1.34,0,2.34,0.41,2.98,1.23
		c0.66,0.85,0.81,2,0.46,3.44L28.74,93.97C28.06,95.8,26.52,96.81,24.43,96.81z M3.72,93.73c0.03,0,0.22,0.08,0.67,0.08h20.04
		c0.94,0,1.28-0.32,1.49-0.84L49.78,6.12c0.15-0.62,0.07-0.85,0.07-0.85c0,0.02-0.19-0.05-0.6-0.05H32.82
		c-0.88,0-1.19,0.34-1.39,0.89L3.89,93.13C3.72,93.5,3.71,93.69,3.72,93.73C3.72,93.73,3.72,93.73,3.72,93.73z M230.32,27.5h-60.82
		c-2.33,0-3.71-1.43-3.71-3.83V6.16c0-2.47,1.39-3.95,3.71-3.95h60.82c2.33,0,3.71,1.48,3.71,3.95v17.5
		C234.03,26.03,232.61,27.5,230.32,27.5z M169.49,5.21c-0.5,0-0.71,0-0.71,0.95v17.5c0,0.83,0.17,0.83,0.71,0.83h60.82
		c0.55,0,0.71,0,0.71-0.83V6.16c0-0.95-0.21-0.95-0.71-0.95H169.49z"/>
</g>
</svg>
