<?xml version="1.0" encoding="utf-8"?>
<!-- Generator: Adobe Illustrator 27.9.0, SVG Export Plug-In . SVG Version: 6.00 Build 0)  -->
<svg width="52" height="52" version="1.1" id="Layer_1" xmlns="http://www.w3.org/2000/svg" xmlns:xlink="http://www.w3.org/1999/xlink" x="0px" y="0px"
	 viewBox="0 0 52 52" style="enable-background:new 0 0 52 52;" xml:space="preserve">
<style type="text/css">
	.closebuttonPath{fill:#572DFF;}
</style>
<g>
	<path class="closebuttonPath" d="M26,52C11.4,52,0,40.2,0,25.1C0,11.5,11.9,0,26,0s26,11.5,26,25.1C52,40.2,40.6,52,26,52z M26,2
		c-13,0-24,10.6-24,23.1C2.1,39,12.6,50,26,50S50,39,50,25.1C50,12.6,39,2,26,2z"/>
</g>
<g>
	<path class="closebuttonPath" d="M36.6,38.5c-0.4,0-0.8-0.2-1.1-0.4l-9.5-9.5L16.7,38c-0.6,0.6-1.5,0.6-2.1,0l-0.3-0.3
		c-0.3-0.3-0.4-0.7-0.4-1.1s0.2-0.8,0.4-1.1l9.4-9.4l-9.7-9.7c-0.6-0.6-0.6-1.5,0-2.1l0.3-0.3c0.3-0.3,0.7-0.4,1.1-0.4l0,0
		c0.4,0,0.8,0.2,1.1,0.4l9.7,9.7l9.6-9.6c0.6-0.6,1.5-0.6,2.1,0l0.3,0.3c0.3,0.3,0.4,0.7,0.4,1.1c0,0.4-0.2,0.8-0.4,1.1l-9.6,9.6
		l9.5,9.5c0.6,0.6,0.6,1.5,0,2.1l-0.3,0.3C37.4,38.4,37,38.5,36.6,38.5L36.6,38.5z"/>
</g>
</svg>
