<?xml version="1.0" encoding="utf-8"?>
<!-- Generator: Adobe Illustrator 27.9.0, SVG Export Plug-In . SVG Version: 6.00 Build 0)  -->
<svg width="130" height="700" version="1.1" id="Layer_1" xmlns="http://www.w3.org/2000/svg" xmlns:xlink="http://www.w3.org/1999/xlink" x="0px" y="0px"
	 viewBox="0 0 130 700" style="enable-background:new 0 0 130 700;" xml:space="preserve">
<style type="text/css">
	.contactPath{fill:#572DFF;} 
</style>
<g>
	<path class="contactPath" d="M82.4,699H47.7c-8.8,0-16.4-1.2-22.3-3.6c-6-2.4-10.9-5.8-14.6-10.2c-3.6-4.4-6.2-9.7-7.7-15.7
		C1.7,663.6,1,657,1,649.9c0-7.1,0.8-13.8,2.3-19.7l0,0c1.5-6,4.1-11.2,7.7-15.6c3.6-4.4,8.3-7.8,14.1-10.2c5.7-2.4,12.8-3.6,21-3.6
		h1.4c2.9,0.1,4.6,1.8,4.6,4.6v25c0,3-1.8,4.7-4.7,4.7H45c-4.7,0-8.5,1.1-11.3,3.3c-2.6,2.1-4,5.9-4,11.5c0,5.5,1.3,9.5,3.8,11.7
		c2.6,2.3,7,3.4,12.9,3.4h37c5.9,0,10.3-1.1,12.9-3.4c2.6-2.2,3.8-6.1,3.8-11.7c0-5.5-1.3-9.4-3.8-11.5c-2.6-2.2-7-3.3-12.9-3.3H81
		c-3,0-4.7-1.8-4.7-4.7v-25c0-2.9,1.8-4.6,4.7-4.6h2.8c8.5,0,15.8,1.2,21.6,3.6c5.8,2.4,10.6,5.9,14.1,10.3c3.5,4.4,6,9.7,7.4,15.7
		c1.4,5.9,2.1,12.4,2.1,19.3c0,7.1-0.7,13.7-2.2,19.7c-1.5,6-4.1,11.3-7.7,15.7c-3.6,4.4-8.5,7.9-14.5,10.2
		C98.7,697.8,91.2,699,82.4,699z M6.2,630.9C4.7,636.6,4,643,4,649.9c0,6.9,0.7,13.3,2.1,18.9c1.4,5.6,3.8,10.5,7.1,14.5
		c3.3,4,7.8,7.2,13.3,9.4c5.6,2.2,12.8,3.3,21.2,3.3h34.7c8.5,0,15.6-1.1,21.1-3.3c5.5-2.2,10-5.3,13.3-9.4c3.3-4,5.7-8.9,7.1-14.5
		c1.4-5.7,2.1-12.1,2.1-18.9c0-6.7-0.7-13-2-18.6c-1.3-5.6-3.6-10.5-6.8-14.5c-3.2-4-7.5-7.2-12.9-9.4c-5.4-2.3-12.3-3.4-20.4-3.4
		H81c-1.5,0-1.7,0.5-1.7,1.6v25c0,1.3,0.4,1.7,1.7,1.7h2.5c6.7,0,11.7,1.3,14.8,3.9c3.3,2.7,4.9,7.3,4.9,13.8
		c0,6.5-1.6,11.1-4.9,13.9c-3.2,2.7-8.2,4.1-14.9,4.1h-37c-6.7,0-11.7-1.4-14.9-4.1c-3.2-2.8-4.9-7.5-4.9-13.9
		c0-6.5,1.7-11.1,5.1-13.8c3.3-2.6,7.7-3.9,13.1-3.9h2.3c1.3,0,1.7-0.4,1.7-1.7v-25c0-1-0.2-1.5-1.6-1.6l-1.3,0
		c-7.8,0-14.5,1.1-19.9,3.3c-5.3,2.2-9.7,5.3-12.9,9.3C10,620.5,7.6,625.3,6.2,630.9L6.2,630.9z M29.7,593.3H7.9
		c-2.9,0-4.6-1.8-4.6-4.7v-36c0-10.4,1-19.5,3-27c2-7.6,5.1-14,9.3-19c4.2-5,9.6-8.7,16.2-11.1C38.2,493.1,46,492,55,492h27.5
		c8.8,0,16.3,1.2,22.3,3.6c6,2.4,10.9,5.8,14.5,10.2c3.6,4.4,6.2,9.7,7.7,15.7c1.5,5.9,2.2,12.5,2.2,19.7c0,7.1-0.7,13.7-2.2,19.7h0
		c-1.5,6-4.1,11.3-7.7,15.6c-3.6,4.4-8.5,7.8-14.5,10.2c-5.9,2.4-13.4,3.6-22.3,3.6h-42c-2.9,0-4.6-1.7-4.6-4.6v-24.8
		c0-3,1.7-4.7,4.6-4.7h40.9c5.9,0,10.3-1.1,12.9-3.3c2.5-2.1,3.8-6,3.8-11.6c0-5.5-1.3-9.5-3.8-11.7c-2.6-2.2-7-3.4-12.9-3.4H56.5
		c-3.6,0-6.9,0.3-9.8,1c-2.7,0.6-4.9,1.9-6.7,3.7c-1.8,1.8-3.2,4.4-4.2,7.7c-1,3.4-1.5,7.9-1.5,13.4v36.8
		C34.2,591.5,32.5,593.3,29.7,593.3z M55,495c-8.6,0-16,1.1-22.2,3.4c-6.1,2.2-11.1,5.6-14.9,10.2c-3.9,4.6-6.8,10.6-8.7,17.8
		c-1.9,7.3-2.9,16.1-2.9,26.3v36c0,1.5,0.5,1.7,1.6,1.7h21.8c1.1,0,1.6-0.3,1.6-1.7v-36.8c0-5.7,0.6-10.5,1.7-14.2
		c1.1-3.8,2.8-6.8,5-9c2.2-2.2,4.9-3.7,8.1-4.5c3.1-0.7,6.6-1.1,10.5-1.1h24.8c6.7,0,11.7,1.4,14.9,4.1c3.2,2.8,4.9,7.5,4.9,13.9
		c0,6.5-1.7,11.1-4.9,13.9c-3.2,2.7-8.2,4-14.8,4H40.4c-1.1,0-1.6,0.3-1.6,1.7v24.8c0,1.2,0.4,1.6,1.6,1.6h42
		c8.5,0,15.6-1.1,21.1-3.3c5.5-2.2,10-5.3,13.3-9.3c3.3-4,5.7-8.8,7.1-14.4c1.4-5.7,2.1-12.1,2.1-18.9s-0.7-13.3-2.1-18.9
		c-1.4-5.6-3.8-10.5-7.1-14.5c-3.3-4-7.8-7.2-13.3-9.4c-5.6-2.2-12.7-3.3-21.1-3.3H55z M6.9,481.1c-0.9,0-1.5-0.3-1.9-0.6l0,0
		c-1.1-0.8-1.6-2-1.6-3.8v-27.6c0-2.4,1.2-4.2,3.4-5.2l56.1-27.3h-55c-2.8,0-4.4-1.7-4.4-4.6v-24.4c0-3,1.7-4.7,4.4-4.7H123
		c0.8,0,1.4,0.3,1.7,0.5c0.9,0.4,2.1,1.5,2.1,3.9v26c0,2.4-1.1,4.2-3.3,5.2L9.1,480.6C8.3,481,7.5,481.1,6.9,481.1z M6.7,478.1
		c0.2,0.1,0.6,0.1,1.2-0.2L122.3,416c1.1-0.5,1.6-1.2,1.6-2.5v-26c0-1-0.3-1.2-0.5-1.2L123,386L7.7,386c-0.9,0-1.4,0.1-1.4,1.7v24.4
		c0,1.3,0.4,1.6,1.4,1.6h61.5l0.7,2.8l-62,30.2c-1.1,0.5-1.6,1.2-1.6,2.5v27.6C6.3,477.4,6.4,477.9,6.7,478.1L6.7,478.1z M122.3,481
		H25.8c-1.8,0-3.1-1.1-3.5-2.9c-0.3-1.8,0.5-3.3,2.2-4.1L71,448.9c1.1-0.6,2.2-1,3.2-1.2c1-0.2,2.1-0.3,3.2-0.3h44.9
		c2.8,0,4.4,1.7,4.4,4.6v24.4C126.7,479.3,125,481,122.3,481z M72.4,451.6l-46.5,25.2c-0.6,0.3-0.6,0.5-0.5,0.8
		c0.1,0.4,0.1,0.5,0.5,0.5h96.5c0.9,0,1.4-0.1,1.4-1.7v-24.4c0-1.3-0.4-1.6-1.4-1.6H77.3c-0.9,0-1.7,0.1-2.5,0.3
		C74.1,450.8,73.3,451.1,72.4,451.6z M31,375.3H8c-3,0-4.7-1.6-4.7-4.4v-80c0-2.8,1.8-4.4,4.7-4.4h23c2.9,0,4.6,1.6,4.6,4.4v80
		C35.6,373.7,33.9,375.3,31,375.3z M8,289.5c-1.6,0-1.7,0.6-1.7,1.4v80c0,0.9,0.1,1.4,1.7,1.4h23c1.3,0,1.6-0.4,1.6-1.4v-80
		c0-1-0.2-1.4-1.6-1.4H8z M122.3,348.5H41.6c-2.8,0-4.4-1.7-4.4-4.6v-25.9c0-3,1.6-4.7,4.4-4.7h80.7c2.8,0,4.4,1.8,4.4,4.7V344
		C126.7,346.8,125,348.5,122.3,348.5z M41.6,316.3c-0.9,0-1.4,0.1-1.4,1.7V344c0,1.3,0.4,1.6,1.4,1.6h80.7c1,0,1.4-0.2,1.4-1.6
		v-25.9c0-1.6-0.6-1.7-1.4-1.7H41.6z M123.1,301.7c-0.6,0-1.3-0.1-2.1-0.5L6.8,265.1c-2.3-0.9-3.5-2.7-3.5-5.1v-21.6
		c0-1.6,0.5-2.8,1.4-3.5c1-0.8,2.4-0.9,4.1-0.5l114.4,31.5c2.2,0.8,3.4,2.7,3.4,5.2v26.3c0,1.7-0.6,3-1.6,3.8
		C124.6,301.5,124,301.7,123.1,301.7z M7.1,237.1c-0.3,0-0.5,0-0.5,0.1c-0.1,0.1-0.3,0.5-0.3,1.2V260c0,1.2,0.4,1.9,1.5,2.3
		l114.3,36.2l0.1,0c0.6,0.3,1,0.3,1.2,0.2c0.2-0.2,0.3-0.6,0.3-1.3V271c0-1.6-0.7-2.1-1.4-2.4L8.1,237.2
		C7.7,237.2,7.4,237.1,7.1,237.1z M105.5,259.2c-0.5,0-1.1-0.1-1.8-0.3l-20.6-5.7c-2.6-0.8-4-2.6-4-5v-9.1l-21.8,5.6
		c-1.5,0.5-3.3,0.4-5.2-0.2l-40-11c-2.8-0.8-3.2-2.5-3.2-3.4c0-1.1,0.5-2.6,3.1-3.6l109.2-34.9c1.6-0.7,3-0.7,4,0
		c1,0.7,1.6,1.9,1.6,3.7v27.4c0,2.6-1.3,4.4-3.6,5l-13.7,3.5v23.3c0,1.7-0.5,3-1.6,3.8l0,0C107.3,258.8,106.6,259.2,105.5,259.2z
		 M82.1,235.2v13c0,0.8,0.2,1.6,1.9,2.1l20.8,5.7c0.4,0.2,1,0.3,1.3,0.1l0,0c0.3-0.3,0.4-0.9,0.4-1.4V229l16-4.1
		c0.6-0.2,1.3-0.5,1.3-2.1v-27.4c0-0.9-0.2-1.2-0.2-1.2c0,0,0,0-0.1,0c-0.1,0-0.5,0-1.2,0.3l-0.1,0.1L12.9,229.4
		c-0.8,0.3-1.1,0.6-1.1,0.7c0,0,0.2,0.3,1.1,0.5l40,11c1.4,0.4,2.5,0.5,3.4,0.2l0.1,0L82.1,235.2z M82.4,191H47.7
		c-8.8,0-16.4-1.2-22.3-3.6c-6-2.4-10.9-5.8-14.6-10.2c-3.6-4.4-6.2-9.7-7.7-15.7C1.7,155.6,1,149,1,141.9c0-7.1,0.8-13.7,2.3-19.7
		c1.5-6,4.1-11.3,7.7-15.6c3.6-4.4,8.3-7.8,14.1-10.2c5.7-2.4,12.8-3.6,21-3.6h1.4c2.9,0.1,4.6,1.8,4.6,4.6v25c0,3-1.8,4.7-4.7,4.7
		H45c-4.7,0-8.5,1.1-11.3,3.3c-2.6,2.1-4,5.9-4,11.5c0,5.5,1.3,9.5,3.8,11.7c2.6,2.3,7,3.4,12.9,3.4h37c5.9,0,10.3-1.1,12.9-3.4
		c2.6-2.2,3.8-6.1,3.8-11.7c0-5.5-1.3-9.4-3.8-11.5c-2.6-2.2-7-3.3-12.9-3.3H81c-3,0-4.7-1.8-4.7-4.7v-25c0-2.9,1.8-4.6,4.7-4.6h2.8
		c8.5,0,15.8,1.2,21.6,3.6c5.8,2.4,10.6,5.9,14.1,10.3c3.5,4.4,6,9.7,7.4,15.7c1.4,5.9,2.1,12.4,2.1,19.3c0,7.1-0.7,13.7-2.2,19.7
		l0,0c-1.5,6-4.1,11.3-7.7,15.7c-3.6,4.4-8.5,7.9-14.5,10.2C98.7,189.8,91.3,191,82.4,191z M47.4,95.9l-1.3,0
		c-7.8,0-14.5,1.1-19.9,3.3c-5.3,2.2-9.7,5.3-12.9,9.3c-3.3,4-5.6,8.9-7.1,14.4C4.7,128.6,4,135,4,141.9c0,6.9,0.7,13.3,2.1,18.9
		c1.4,5.6,3.8,10.5,7.1,14.5c3.3,4,7.8,7.2,13.3,9.4c5.6,2.2,12.8,3.3,21.2,3.3h34.7c8.5,0,15.6-1.1,21.1-3.3
		c5.5-2.2,10-5.3,13.3-9.4c3.3-4,5.7-8.9,7.1-14.5l0,0c1.4-5.7,2.1-12.1,2.1-18.9c0-6.7-0.7-13-2-18.6c-1.3-5.6-3.6-10.5-6.8-14.5
		c-3.2-4-7.5-7.2-12.9-9.4c-5.4-2.3-12.3-3.4-20.4-3.4H81c-1.5,0-1.7,0.5-1.7,1.6v25c0,1.3,0.4,1.7,1.7,1.7h2.5
		c6.7,0,11.7,1.3,14.8,3.9c3.3,2.7,4.9,7.3,4.9,13.8c0,6.5-1.6,11.1-4.9,13.9c-3.2,2.7-8.2,4.1-14.9,4.1h-37
		c-6.7,0-11.7-1.4-14.9-4.1c-3.2-2.8-4.9-7.5-4.9-13.9c0-6.5,1.7-11.1,5.1-13.8c3.3-2.6,7.7-3.9,13.1-3.9h2.3c1.3,0,1.7-0.4,1.7-1.7
		v-25C49,96.5,48.8,96,47.4,95.9z M31,89.8H8c-3,0-4.7-1.6-4.7-4.4v-80C3.3,2.7,5.1,1,8,1h23c2.9,0,4.6,1.6,4.6,4.4v80
		C35.6,88.1,33.9,89.8,31,89.8z M8,4C6.4,4,6.3,4.6,6.3,5.4v80c0,0.9,0.1,1.4,1.7,1.4h23c1.3,0,1.6-0.4,1.6-1.4v-80
		c0-1-0.2-1.4-1.6-1.4H8z M122.3,63H41.6c-2.8,0-4.4-1.7-4.4-4.6V32.5c0-3,1.6-4.7,4.4-4.7h80.7c2.8,0,4.4,1.8,4.4,4.7v25.9
		C126.7,61.3,125,63,122.3,63z M41.6,30.8c-0.9,0-1.4,0.1-1.4,1.7v25.9c0,1.3,0.4,1.6,1.4,1.6h80.7c1,0,1.4-0.2,1.4-1.6V32.5
		c0-1.6-0.6-1.7-1.4-1.7H41.6z"/>
</g>
</svg>
