<?xml version="1.0" encoding="utf-8"?>
<!-- Generator: Adobe Illustrator 27.9.0, SVG Export Plug-In . SVG Version: 6.00 Build 0)  -->
<svg width="336" height="147" version="1.1" id="Layer_1" xmlns="http://www.w3.org/2000/svg" xmlns:xlink="http://www.w3.org/1999/xlink" x="0px" y="0px"
	 viewBox="0 0 336 147" style="enable-background:new 0 0 336 147;" xml:space="preserve">
<style type="text/css">
	.contactLogoPath{fill:#222222;}
	.contactLogoPathg{enable-background:new    ;}
</style>
<g>
	<path class="contactLogoPath" d="M154.4,5.3c-4.5-0.5-8-0.7-10.6-0.7c-11.1,0-20,2.9-26.6,8.6s-9.9,13.8-9.9,24.4v1.5h0v13.6H81.9h-8.4H59.3
		v-48H16v12.8h26.5v66.7h0v3.5c0,4.1-0.2,7.7-0.6,10.8s-1.4,5.8-2.9,7.9c-1.5,2.1-3.7,3.7-6.8,4.8c-3.1,1.1-7.2,1.7-12.4,1.7
		c-3.5,0-7-0.5-10.4-1.4c-3.4-0.9-6.2-1.7-8.6-2.5H0v15.3c3,0.7,6.8,1.2,11.3,1.6c4.5,0.4,8.1,0.7,10.8,0.7c11.3,0,20.3-2.9,27-8.6
		c6.7-5.7,10.1-13.8,10.1-24.4V66.9h14.2h8.4h25.4v58.9h0v0.8h42.5v-12.8h-26.1V43.7c0-4.1,0.2-7.7,0.6-10.8
		c0.4-3.1,1.4-5.8,2.9-7.9c1.4-2.1,3.7-3.7,6.7-4.8s7.1-1.7,12.1-1.7c3.5,0,6.9,0.5,10.2,1.4c3.3,0.9,6.1,1.7,8.4,2.5h0.9V7
		C162.6,6.3,158.9,5.8,154.4,5.3z"/>
	<g class="contactLogoPathg">
		<path class="contactLogoPath" d="M161.1,42.4l7-5.1c2,3.7,4.7,5.2,7.7,5.2c4.5,0,6.9-2.4,6.9-9.3V0h10.3v34.1c0,9.4-4.9,17.2-15.9,17.2
			C169.5,51.2,164.5,48.2,161.1,42.4z"/>
		<path class="contactLogoPath" d="M202.1,31.3c0-12.6,9-20,18.7-20c9.7,0,18.7,7.3,18.7,20s-9,20-18.7,20C211,51.2,202.1,43.9,202.1,31.3z
			 M229.1,31.3c0-7.1-3-11.8-8.3-11.8c-5.3,0-8.3,4.7-8.3,11.8c0,7.2,3,11.8,8.3,11.8C226.1,43.1,229.1,38.5,229.1,31.3z"/>
		<path class="contactLogoPath" d="M248.1,12.3h8.4l0.8,5h0.2c3.4-3.2,7.4-6,12.7-6c8.4,0,12,5.7,12,15.3v23.7h-10.2V27.8c0-5.9-1.7-8-5.5-8
			c-3.2,0-5.2,1.5-8.1,4.3v26.1h-10.2L248.1,12.3L248.1,12.3z"/>
		<path class="contactLogoPath" d="M290.1,57c0-3.2,2-5.9,5.6-7.9v-0.3c-2-1.3-3.6-3.2-3.6-6.4c0-2.9,2-5.5,4.4-7.1V35c-2.7-1.9-5.2-5.5-5.2-10
			c0-8.9,7.5-13.7,15.7-13.7c2.2,0,4.3,0.4,5.8,0.9H327v7.3h-6.6c1,1.3,1.7,3.4,1.7,5.8c0,8.6-6.7,12.9-15,12.9
			c-1.5,0-3.3-0.3-5-0.9c-1,0.9-1.7,1.7-1.7,3.2c0,2,1.5,3.1,6.1,3.1h6.6c9.4,0,14.5,2.9,14.5,9.5c0,7.7-8.2,13.5-21.2,13.5
			C297.2,66.8,290.1,63.7,290.1,57z M317.9,55c0-2.7-2.3-3.4-6.5-3.4h-4.7c-2.4,0-4-0.2-5.4-0.5c-1.7,1.4-2.5,2.9-2.5,4.4
			c0,3.2,3.6,5,9.2,5C313.8,60.5,317.9,58,317.9,55z M313.2,25c0-4.4-2.6-6.9-6.1-6.9c-3.5,0-6.1,2.5-6.1,6.9c0,4.6,2.7,7.1,6.1,7.1
			C310.5,32.1,313.2,29.6,313.2,25z"/>
	</g>
	<g class="contactLogoPathg">
		<path class="contactLogoPath" d="M165.8,81.5h10.3v19.8h19.5V81.5h10.2v50.3h-10.2V110h-19.5v21.7h-10.3V81.5z"/>
		<path class="contactLogoPath" d="M215.7,146.3l1.9-7.7c0.7,0.2,1.8,0.5,2.7,0.5c4,0,6.2-2.4,7.3-5.8l0.7-2.3l-15.2-37.3h10.3l6.2,17.6
			c1.2,3.4,2.2,7.1,3.3,10.7h0.3c0.9-3.5,1.9-7.2,2.8-10.7l5.4-17.6h9.8l-13.8,39.2c-3.4,9-7.6,14.1-16.3,14.1
			C218.8,147,217.3,146.7,215.7,146.3z"/>
		<path class="contactLogoPath" d="M257.2,117.5V93.7h10.2v22.5c0,5.8,1.7,8,5.4,8c3.2,0,5.3-1.4,7.9-4.8V93.7h10.2v38h-8.4l-0.8-5.4h-0.3
			c-3.3,3.9-7.1,6.4-12.4,6.4C260.8,132.7,257.2,127,257.2,117.5z"/>
		<path class="contactLogoPath" d="M302,93.7h8.4l0.8,5h0.2c3.4-3.2,7.4-6,12.7-6c8.4,0,12,5.7,12,15.3v23.7h-10.2v-22.5c0-5.9-1.7-8-5.5-8
			c-3.2,0-5.2,1.5-8.1,4.3v26.1h-10.2L302,93.7L302,93.7z"/>
	</g>
</g>
</svg>
