<?xml version="1.0" encoding="utf-8"?>
<!-- Generator: Adobe Illustrator 28.0.0, SVG Export Plug-In . SVG Version: 6.00 Build 0)  -->
<svg width="417" height="417" version="1.1" id="Layer_1" xmlns="http://www.w3.org/2000/svg" xmlns:xlink="http://www.w3.org/1999/xlink" x="0px" y="0px"
	 viewBox="0 0 417 417" style="enable-background:new 0 0 417 417;" xml:space="preserve">
<style type="text/css">
	.dotrec{fill:#572DFF;}
</style>
<g>
	<g>
		<rect x="0" y="0" class="dotrec" width="7" height="7"/>
		<rect x="37.27" class="dotrec" width="7" height="7"/>
		<rect x="74.55" class="dotrec" width="7" height="7"/>
		<rect x="111.82" class="dotrec" width="7" height="7"/>
		<rect x="149.09" class="dotrec" width="7" height="7"/>
		<rect x="186.36" class="dotrec" width="7" height="7"/>
		<rect x="223.64" class="dotrec" width="7" height="7"/>
		<rect x="260.91" class="dotrec" width="7" height="7"/>
		<rect x="298.18" class="dotrec" width="7" height="7"/>
		<rect x="335.45" class="dotrec" width="7" height="7"/>
		<rect x="372.73" class="dotrec" width="7" height="7"/>
		<rect x="410" class="dotrec" width="7" height="7"/>
	</g>
	<g>
		<rect y="37.27" class="st0" width="7" height="7"/>
		<rect x="37.27" y="37.27" class="dotrec" width="7" height="7"/>
		<rect x="74.55" y="37.27" class="dotrec" width="7" height="7"/>
		<rect x="111.82" y="37.27" class="dotrec" width="7" height="7"/>
		<rect x="149.09" y="37.27" class="dotrec" width="7" height="7"/>
		<rect x="186.36" y="37.27" class="dotrec" width="7" height="7"/>
		<rect x="223.64" y="37.27" class="dotrec" width="7" height="7"/>
		<rect x="260.91" y="37.27" class="dotrec" width="7" height="7"/>
		<rect x="298.18" y="37.27" class="dotrec" width="7" height="7"/>
		<rect x="335.45" y="37.27" class="dotrec" width="7" height="7"/>
		<rect x="372.73" y="37.27" class="dotrec" width="7" height="7"/>
		<rect x="410" y="37.27" class="dotrec" width="7" height="7"/>
	</g>
	<g>
		<rect x="0" y="74.55" class="dotrec" width="7" height="7"/>
		<rect x="37.27" y="74.55" class="dotrec" width="7" height="7"/>
		<rect x="74.55" y="74.55" class="dotrec" width="7" height="7"/>
		<rect x="111.82" y="74.55" class="dotrec" width="7" height="7"/>
		<rect x="149.09" y="74.55" class="dotrec" width="7" height="7"/>
		<rect x="186.36" y="74.55" class="dotrec" width="7" height="7"/>
		<rect x="223.64" y="74.55" class="dotrec" width="7" height="7"/>
		<rect x="260.91" y="74.55" class="dotrec" width="7" height="7"/>
		<rect x="298.18" y="74.55" class="dotrec" width="7" height="7"/>
		<rect x="335.45" y="74.55" class="dotrec" width="7" height="7"/>
		<rect x="372.73" y="74.55" class="dotrec" width="7" height="7"/>
		<rect x="410" y="74.55" class="dotrec" width="7" height="7"/>
	</g>
	<g>
		<rect x="0" y="111.82" class="dotrec" width="7" height="7"/>
		<rect x="37.27" y="111.82" class="dotrec" width="7" height="7"/>
		<rect x="74.55" y="111.82" class="dotrec" width="7" height="7"/>
		<rect x="111.82" y="111.82" class="dotrec" width="7" height="7"/>
		<rect x="149.09" y="111.82" class="dotrec" width="7" height="7"/>
		<rect x="186.36" y="111.82" class="dotrec" width="7" height="7"/>
		<rect x="223.64" y="111.82" class="dotrec" width="7" height="7"/>
		<rect x="260.91" y="111.82" class="dotrec" width="7" height="7"/>
		<rect x="298.18" y="111.82" class="dotrec" width="7" height="7"/>
		<rect x="335.45" y="111.82" class="dotrec" width="7" height="7"/>
		<rect x="372.73" y="111.82" class="dotrec" width="7" height="7"/>
		<rect x="410" y="111.82" class="dotrec" width="7" height="7"/>
	</g>
	<g>
		<rect y="149.09" class="st0" width="7" height="7"/>
		<rect x="37.27" y="149.09" class="st0" width="7" height="7"/>
		<rect x="74.55" y="149.09" class="st0" width="7" height="7"/>
		<rect x="111.82" y="149.09" class="st0" width="7" height="7"/>
		<rect x="149.09" y="149.09" class="st0" width="7" height="7"/>
		<rect x="186.36" y="149.09" class="st0" width="7" height="7"/>
		<rect x="223.64" y="149.09" class="st0" width="7" height="7"/>
		<rect x="260.91" y="149.09" class="st0" width="7" height="7"/>
		<rect x="298.18" y="149.09" class="st0" width="7" height="7"/>
		<rect x="335.45" y="149.09" class="st0" width="7" height="7"/>
		<rect x="372.73" y="149.09" class="st0" width="7" height="7"/>
		<rect x="410" y="149.09" class="st0" width="7" height="7"/>
	</g>
	<g>
		<rect y="186.36" class="st0" width="7" height="7"/>
		<rect x="37.27" y="186.36" class="st0" width="7" height="7"/>
		<rect x="74.55" y="186.36" class="st0" width="7" height="7"/>
		<rect x="111.82" y="186.36" class="st0" width="7" height="7"/>
		<rect x="149.09" y="186.36" class="st0" width="7" height="7"/>
		<rect x="186.36" y="186.36" class="st0" width="7" height="7"/>
		<rect x="223.64" y="186.36" class="st0" width="7" height="7"/>
		<rect x="260.91" y="186.36" class="st0" width="7" height="7"/>
		<rect x="298.18" y="186.36" class="st0" width="7" height="7"/>
		<rect x="335.45" y="186.36" class="st0" width="7" height="7"/>
		<rect x="372.73" y="186.36" class="st0" width="7" height="7"/>
		<rect x="410" y="186.36" class="st0" width="7" height="7"/>
	</g>
	<g>
		<rect y="223.64" class="dotrec" width="7" height="7"/>
		<rect x="37.27" y="223.64" class="dotrec" width="7" height="7"/>
		<rect x="74.55" y="223.64" class="dotrec" width="7" height="7"/>
		<rect x="111.82" y="223.64" class="dotrec" width="7" height="7"/>
		<rect x="149.09" y="223.64" class="dotrec" width="7" height="7"/>
		<rect x="186.36" y="223.64" class="dotrec" width="7" height="7"/>
		<rect x="223.64" y="223.64" class="dotrec" width="7" height="7"/>
		<rect x="260.91" y="223.64" class="dotrec" width="7" height="7"/>
		<rect x="298.18" y="223.64" class="dotrec" width="7" height="7"/>
		<rect x="335.45" y="223.64" class="dotrec" width="7" height="7"/>
		<rect x="372.73" y="223.64" class="dotrec" width="7" height="7"/>
		<rect x="410" y="223.64" class="dotrec" width="7" height="7"/>
	</g>
	<g>
		<rect y="260.91" class="dotrec" width="7" height="7"/>
		<rect x="37.27" y="260.91" class="dotrec" width="7" height="7"/>
		<rect x="74.55" y="260.91" class="dotrec" width="7" height="7"/>
		<rect x="111.82" y="260.91" class="dotrec" width="7" height="7"/>
		<rect x="149.09" y="260.91" class="dotrec" width="7" height="7"/>
		<rect x="186.36" y="260.91" class="dotrec" width="7" height="7"/>
		<rect x="223.64" y="260.91" class="dotrec" width="7" height="7"/>
		<rect x="260.91" y="260.91" class="dotrec" width="7" height="7"/>
		<rect x="298.18" y="260.91" class="dotrec" width="7" height="7"/>
		<rect x="335.45" y="260.91" class="dotrec" width="7" height="7"/>
		<rect x="372.73" y="260.91" class="dotrec" width="7" height="7"/>
		<rect x="410" y="260.91" class="dotrec" width="7" height="7"/>
	</g>
	<g>
		<rect x="0" y="298.18" class="dotrec" width="7" height="7"/>
		<rect x="37.27" y="298.18" class="dotrec" width="7" height="7"/>
		<rect x="74.55" y="298.18" class="dotrec" width="7" height="7"/>
		<rect x="111.82" y="298.18" class="dotrec" width="7" height="7"/>
		<rect x="149.09" y="298.18" class="dotrec" width="7" height="7"/>
		<rect x="186.36" y="298.18" class="dotrec" width="7" height="7"/>
		<rect x="223.64" y="298.18" class="dotrec" width="7" height="7"/>
		<rect x="260.91" y="298.18" class="dotrec" width="7" height="7"/>
		<rect x="298.18" y="298.18" class="dotrec" width="7" height="7"/>
		<rect x="335.45" y="298.18" class="dotrec" width="7" height="7"/>
		<rect x="372.73" y="298.18" class="dotrec" width="7" height="7"/>
		<rect x="410" y="298.18" class="dotrec" width="7" height="7"/>
	</g>
	<g>
		<rect x="0" y="335.45" class="dotrec" width="7" height="7"/>
		<rect x="37.27" y="335.45" class="dotrec" width="7" height="7"/>
		<rect x="74.55" y="335.45" class="dotrec" width="7" height="7"/>
		<rect x="111.82" y="335.45" class="dotrec" width="7" height="7"/>
		<rect x="149.09" y="335.45" class="dotrec" width="7" height="7"/>
		<rect x="186.36" y="335.45" class="dotrec" width="7" height="7"/>
		<rect x="223.64" y="335.45" class="dotrec" width="7" height="7"/>
		<rect x="260.91" y="335.45" class="dotrec" width="7" height="7"/>
		<rect x="298.18" y="335.45" class="dotrec" width="7" height="7"/>
		<rect x="335.45" y="335.45" class="dotrec" width="7" height="7"/>
		<rect x="372.73" y="335.45" class="dotrec" width="7" height="7"/>
		<rect x="410" y="335.45" class="dotrec" width="7" height="7"/>
	</g>
	<g>
		<rect x="0" y="372.73" class="dotrec" width="7" height="7"/>
		<rect x="37.27" y="372.73" class="dotrec" width="7" height="7"/>
		<rect x="74.55" y="372.73" class="dotrec" width="7" height="7"/>
		<rect x="111.82" y="372.73" class="dotrec" width="7" height="7"/>
		<rect x="149.09" y="372.73" class="dotrec" width="7" height="7"/>
		<rect x="186.36" y="372.73" class="dotrec" width="7" height="7"/>
		<rect x="223.64" y="372.73" class="dotrec" width="7" height="7"/>
		<rect x="260.91" y="372.73" class="dotrec" width="7" height="7"/>
		<rect x="298.18" y="372.73" class="dotrec" width="7" height="7"/>
		<rect x="335.45" y="372.73" class="dotrec" width="7" height="7"/>
		<rect x="372.73" y="372.73" class="dotrec" width="7" height="7"/>
		<rect x="410" y="372.73" class="dotrec" width="7" height="7"/>
	</g>
	<g>
		<rect x="0" y="410" class="dotrec" width="7" height="7"/>
		<rect x="37.27" y="410" class="dotrec" width="7" height="7"/>
		<rect x="74.55" y="410" class="dotrec" width="7" height="7"/>
		<rect x="111.82" y="410" class="dotrec" width="7" height="7"/>
		<rect x="149.09" y="410" class="dotrec" width="7" height="7"/>
		<rect x="186.36" y="410" class="dotrec" width="7" height="7"/>
		<rect x="223.64" y="410" class="dotrec" width="7" height="7"/>
		<rect x="260.91" y="410" class="dotrec" width="7" height="7"/>
		<rect x="298.18" y="410" class="dotrec" width="7" height="7"/>
		<rect x="335.45" y="410" class="dotrec" width="7" height="7"/>
		<rect x="372.73" y="410" class="dotrec" width="7" height="7"/>
		<rect x="410" y="410" class="dotrec" width="7" height="7"/>
	</g>
</g>
</svg>
