<?xml version="1.0" encoding="utf-8"?>
<!-- Generator: Adobe Illustrator 27.9.0, SVG Export Plug-In . SVG Version: 6.00 Build 0)  -->
<svg width="52" height="52" version="1.1" id="Layer_1" xmlns="http://www.w3.org/2000/svg" xmlns:xlink="http://www.w3.org/1999/xlink" x="0px" y="0px"
	 viewBox="0 0 52 52" style="enable-background:new 0 0 52 52;" xml:space="preserve">
<style type="text/css">
	.instagramPath{fill:#222222;enable-background:new    ;}
</style>
<g>
	<circle class="st0" cx="26" cy="26" r="13"/>
	<path class="instagramPath" d="M42.8,0H9.2C4.1,0,0,4.1,0,9.2v33.7C0,47.9,4.1,52,9.2,52h33.7c5.1,0,9.2-4.1,9.2-9.2V9.2
		C52,4.1,47.9,0,42.8,0z M26,43c-9.4,0-17-7.6-17-17S16.6,9,26,9s17,7.6,17,17S35.4,43,26,43z M43,10c-1.1,0-2-0.9-2-2
		c0-1.1,0.9-2,2-2s2,0.9,2,2C45,9.1,44.1,10,43,10z"/>
</g>
</svg>
