<?xml version="1.0" encoding="utf-8"?>
<!-- Generator: Adobe Illustrator 27.9.0, SVG Export Plug-In . SVG Version: 6.00 Build 0)  -->
<svg width="61" height="55" version="1.1" id="Layer_1" xmlns="http://www.w3.org/2000/svg" xmlns:xlink="http://www.w3.org/1999/xlink" x="0px" y="0px"
	 viewBox="0 0 61 55" style="enable-background:new 0 0 61 55;" xml:space="preserve">
<style type="text/css">
	.kakaotaltPath{fill:#222222;enable-background:new    ;}
</style>
<g>
	<path class="kakaotaltPath" d="M30.5,0c7.7,0.1,14.7,2,20.9,6.7c4.2,3.2,7.2,7.2,8.5,12.4c1.5,6.3,0,12-4,17.1c-4,5-9.3,8.1-15.4,9.8
		c-5,1.4-10.1,1.7-15.2,1c-0.3,0-0.6,0.1-0.8,0.3c-3.5,2.4-7,4.7-10.5,7.1c-0.5,0.3-1,0.9-1.6,0.5c-0.7-0.5-0.3-1.2-0.1-1.7
		c0.7-2.9,1.5-5.7,2.3-8.6c0.1-0.5,0.1-0.8-0.4-1c-4.1-2.1-7.5-4.9-10.1-8.7C-1.2,27-0.5,17.3,5.9,10.2c4.3-4.9,9.8-7.7,16-9.2
		C24.7,0.3,27.6,0,30.5,0z M45,25.1c0.2,0.2,0.3,0.4,0.4,0.6c1.1,1.5,2.3,3.1,3.4,4.6c0.5,0.6,0.9,0.7,1.6,0.4
		c0.3-0.1,0.6-0.4,0.8-0.6c0.6-0.6,0.7-1.1,0.1-1.8c-1.2-1.6-2.4-3.2-3.7-4.8c-0.3-0.4-0.3-0.6,0.1-1c1.1-1.2,2.2-2.4,3.4-3.5
		c0.5-0.5,0.5-0.9,0.1-1.4c-0.2-0.3-0.5-0.5-0.8-0.8c-0.5-0.4-1-0.4-1.5,0.1c-1.4,1.5-2.9,2.9-4.3,4.3c-0.2,0.1-0.3,0.3-0.6,0.5
		c0-1.5,0-2.7,0-4c0-1-0.4-1.3-1.6-1.3c-1.1,0-1.5,0.4-1.5,1.3c0,3.9,0,7.9,0,11.8c0,0.8,0.3,1.1,1,1.2c0.5,0.1,0.9,0,1.4-0.1
		c0.5-0.1,0.7-0.4,0.7-1c0-1,0-2,0-3C43.9,25.9,44.2,25.5,45,25.1z M27,28c0.2,0.7,0.4,1.3,0.6,1.8c0.3,0.9,1,1.2,1.9,0.9
		c0.9-0.3,1.3-1,1-1.9c-1.4-3.7-2.7-7.3-4.1-11c-0.4-1-1-1.4-2.2-1.4c-1,0-1.5,0.3-1.9,1.4c-0.9,2.3-1.7,4.6-2.6,7
		c-0.5,1.4-1.1,2.7-1.6,4.1c-0.3,0.9,0.1,1.6,1.1,1.9c0.9,0.3,1.5,0,1.8-0.9c0.1-0.5,0.2-1,0.4-1.4c0.1-0.2,0.3-0.4,0.4-0.4
		C23.6,28,25.3,28,27,28z M12.8,24.7c0,1.6,0,3.2,0,4.8c0,0.3,0.2,0.8,0.5,1c0.6,0.4,1.4,0.4,2.1,0c0.6-0.3,0.6-0.9,0.6-1.5
		c0-3,0-6,0-8.9c0-0.6,0.2-0.8,0.8-0.8c0.8,0,1.6,0,2.4,0c0.7,0,1.2-0.6,1.3-1.4c0-0.8-0.5-1.5-1.3-1.5c-3.2,0-6.4-0.1-9.5,0
		c-0.8,0-1.3,0.6-1.3,1.4c0,0.9,0.5,1.4,1.3,1.4c0.8,0,1.6,0,2.4,0c0.5,0,0.7,0.2,0.7,0.7C12.7,21.6,12.8,23.1,12.8,24.7z
		 M31.7,23.7C31.7,23.7,31.7,23.7,31.7,23.7c0,1.9,0,3.8,0,5.7c0,1,0.4,1.4,1.3,1.4c1.9,0,3.9,0,5.8,0c0.8,0,1.3-0.5,1.3-1.5
		c0-1-0.4-1.5-1.3-1.5c-1,0-1.9,0-2.9,0c-1,0-1,0-1-1c0-2.9,0-5.9,0-8.8c0-1-0.6-1.5-1.7-1.5c-1,0-1.5,0.6-1.5,1.5
		C31.7,19.9,31.7,21.8,31.7,23.7z"/>
	<path class="kakaotaltPath" d="M26.1,25.2c-1.2,0-2.3,0-3.6,0c0.6-1.7,1.2-3.4,1.8-5.1c0.1,0,0.1,0,0.2,0C25,21.8,25.5,23.5,26.1,25.2z"/>
</g>
</svg>
