<?xml version="1.0" encoding="utf-8"?>
<!-- Generator: Adobe Illustrator 28.0.0, SVG Export Plug-In . SVG Version: 6.00 Build 0)  -->
<svg version="1.1" id="Layer_1" xmlns="http://www.w3.org/2000/svg" xmlns:xlink="http://www.w3.org/1999/xlink" x="0px" y="0px"
	 viewBox="0 0 140 60" style="enable-background:new 0 0 140 60;" xml:space="preserve">
<style type="text/css">
	.st0{fill:#572DFF;}
	.st1{enable-background:new    ;}
</style>
<path class="st0" d="M64.28,1.97C62.49,1.78,61.06,1.69,60,1.69c-4.47,0-8.03,1.18-10.68,3.53s-3.98,5.71-3.98,10.06v0.62h-0.02
	v5.59H35.1h-3.38H26V1.68H8.6v5.27h10.66v27.5h0.02v1.46c0,1.69-0.08,3.18-0.25,4.47s-0.56,2.38-1.17,3.27
	c-0.59,0.87-1.5,1.53-2.73,2s-2.89,0.7-4.97,0.7c-1.42,0-2.82-0.19-4.19-0.57s-2.51-0.72-3.44-1.03H2.16v6.3
	c1.22,0.27,2.74,0.49,4.56,0.68C8.54,51.91,9.99,52,11.08,52c4.54,0,8.16-1.18,10.87-3.53c2.7-2.35,4.05-5.71,4.05-10.06V27.36h5.72
	h3.38h10.21v24.29h0.02V52h17.09v-5.27h-10.5V17.78c0-1.69,0.08-3.18,0.25-4.47s0.55-2.38,1.15-3.27c0.58-0.87,1.47-1.53,2.68-2
	c1.21-0.47,2.84-0.7,4.88-0.7c1.4,0,2.77,0.19,4.12,0.57c1.34,0.38,2.47,0.72,3.38,1.03h0.37v-6.3C67.56,2.38,66.06,2.15,64.28,1.97
	z"/>
<g class="st1">
	<path class="st0" d="M66.95,17.27l2.83-2.1c0.81,1.51,1.9,2.16,3.08,2.16c1.82,0,2.77-0.98,2.77-3.84V-0.23h4.14v14.06
		c0,3.89-1.96,7.08-6.41,7.08C70.34,20.91,68.32,19.67,66.95,17.27z"/>
	<path class="st0" d="M83.44,12.67c0-5.21,3.61-8.23,7.53-8.23s7.53,3.02,7.53,8.23s-3.61,8.23-7.53,8.23S83.44,17.88,83.44,12.67z
		 M94.31,12.67c0-2.94-1.2-4.87-3.33-4.87c-2.13,0-3.33,1.93-3.33,4.87c0,2.97,1.2,4.87,3.33,4.87
		C93.1,17.55,94.31,15.64,94.31,12.67z"/>
	<path class="st0" d="M101.95,4.83h3.36l0.31,2.07h0.08c1.37-1.34,2.97-2.46,5.1-2.46c3.39,0,4.84,2.35,4.84,6.3v9.77h-4.12v-9.27
		c0-2.44-0.67-3.28-2.21-3.28c-1.29,0-2.1,0.62-3.25,1.76v10.78h-4.12V4.83z"/>
	<path class="st0" d="M118.86,23.29c0-1.32,0.81-2.44,2.24-3.25V19.9c-0.81-0.53-1.43-1.34-1.43-2.63c0-1.18,0.81-2.27,1.76-2.94
		v-0.11c-1.09-0.78-2.1-2.27-2.1-4.12c0-3.67,3-5.66,6.33-5.66c0.87,0,1.71,0.17,2.35,0.39h5.66v3.02h-2.66
		c0.39,0.53,0.7,1.4,0.7,2.38c0,3.53-2.69,5.32-6.05,5.32c-0.62,0-1.34-0.14-2.02-0.36c-0.42,0.36-0.67,0.7-0.67,1.34
		c0,0.84,0.62,1.29,2.46,1.29h2.66c3.78,0,5.85,1.18,5.85,3.92c0,3.16-3.3,5.57-8.54,5.57C121.72,27.32,118.86,26.06,118.86,23.29z
		 M130.01,22.45c0-1.12-0.92-1.4-2.6-1.4h-1.9c-0.95,0-1.62-0.08-2.18-0.22c-0.7,0.56-1.01,1.18-1.01,1.82
		c0,1.32,1.46,2.07,3.72,2.07C128.38,24.71,130.01,23.68,130.01,22.45z M128.13,10.1c0-1.82-1.06-2.86-2.46-2.86
		s-2.46,1.04-2.46,2.86c0,1.88,1.09,2.91,2.46,2.91S128.13,11.97,128.13,10.1z"/>
</g>
<g class="st1">
	<path class="st0" d="M68.86,33.37H73v8.18h7.84v-8.18h4.12v20.75h-4.12v-8.96H73v8.96h-4.14V33.37z"/>
	<path class="st0" d="M88.93,60.11l0.76-3.16c0.28,0.08,0.73,0.2,1.09,0.2c1.6,0,2.49-1.01,2.94-2.38L94,53.83l-6.1-15.4h4.14
		l2.49,7.28c0.48,1.4,0.87,2.91,1.32,4.42h0.14c0.36-1.46,0.76-2.97,1.12-4.42l2.16-7.28h3.95l-5.57,16.16
		c-1.37,3.7-3.05,5.82-6.55,5.82C90.16,60.41,89.55,60.3,88.93,60.11z"/>
	<path class="st0" d="M105.62,48.23v-9.8h4.12v9.27c0,2.41,0.67,3.28,2.18,3.28c1.29,0,2.13-0.56,3.19-1.96V38.43h4.12v15.68h-3.36
		l-0.31-2.24h-0.11c-1.34,1.6-2.86,2.63-4.98,2.63C107.08,54.5,105.62,52.15,105.62,48.23z"/>
	<path class="st0" d="M123.62,38.43h3.36l0.31,2.07h0.08c1.37-1.34,2.97-2.46,5.1-2.46c3.39,0,4.84,2.35,4.84,6.3v9.77h-4.12v-9.27
		c0-2.44-0.67-3.28-2.21-3.28c-1.29,0-2.1,0.62-3.25,1.76v10.78h-4.12V38.43z"/>
</g>
</svg>
