<?xml version="1.0" encoding="utf-8"?>
<!-- Generator: Adobe Illustrator 27.9.0, SVG Export Plug-In . SVG Version: 6.00 Build 0)  -->
<svg width="60" height="40" version="1.1" id="Layer_1" xmlns="http://www.w3.org/2000/svg" xmlns:xlink="http://www.w3.org/1999/xlink" x="0px" y="0px"
	 viewBox="0 0 60 40" style="enable-background:new 0 0 60 40;" xml:space="preserve">
<style type="text/css">
	.mailPath{fill:#222222;enable-background:new    ;}
</style>
<path class="mailPath" d="M30.5,22.6l25-20.3C56,1.9,55.7,1,55,1H5C4.3,1,4,1.9,4.6,2.3l25,20.3C29.8,22.8,30.2,22.8,30.5,22.6z"/>
<path class="mailPath" d="M17.2,19.9L1.3,8C0.7,7.6,0,7.9,0,8.6v23.8c0,0.7,0.7,1,1.3,0.6l15.9-11.9C17.6,20.8,17.6,20.2,17.2,19.9z"/>
<path class="mailPath" d="M42.8,19.9L58.7,8c0.5-0.4,1.3,0,1.3,0.6v23.8c0,0.7-0.7,1-1.3,0.6L42.8,21.1C42.4,20.8,42.4,20.2,42.8,19.9z"
	/>
<path class="mailPath" d="M36.6,23.7l-3.9,3.1c-1.6,1.3-3.9,1.3-5.5,0l-3.9-3.1c-0.8-0.7-2-0.7-2.8,0l-17.1,14C3,38.2,3.3,39,4,39h52
	c0.7,0,1-0.8,0.5-1.3l-17.1-14C38.6,23,37.4,23,36.6,23.7z"/>
</svg>
