<svg width="1920" height="5085" version="1.1" id="PathLine900" xmlns="http://www.w3.org/2000/svg" xmlns:xlink="http://www.w3.org/1999/xlink" x="0px" y="0px"
	 viewBox="0 0 1920 5085" style="enable-background:new 0 0 1920 5085;" xml:space="preserve">
<style type="text/css">
	.over900path{fill:none;stroke:#000000;stroke-width:2;stroke-miterlimit:10;}
</style>
<path class="over900path" d="M-86.7,632.1c0,0,920-472.2,969-337.3s-720,411.7-670,608.3s1089,165.2,1085,285c-4,119.8-608,60.5-660,262.9
	s990.2,352.4,986,508.3c-4,148.9-581,126.8-625,267.5c-44,140.7,506,264,483,482.7s-768,338.5-768,540.8
	c0,202.4,928,159.3,839,664.1s-889,329.1-889,717.6s1010,721.1,1010,721.1"/>
</svg>
