<?xml version="1.0" encoding="utf-8"?>
<!-- Generator: Adobe Illustrator 27.9.0, SVG Export Plug-In . SVG Version: 6.00 Build 0)  -->
<svg version="1.1" id="Layer_1" xmlns="http://www.w3.org/2000/svg" xmlns:xlink="http://www.w3.org/1999/xlink" x="0px" y="0px"
	 viewBox="0 0 1665 4335" style="enable-background:new 0 0 1665 4335;" xml:space="preserve">
<style type="text/css">
	.st0{fill:none;stroke:#562DFF;stroke-width:3;stroke-miterlimit:10;}
</style>
<path class="st0" d="M182.5-120.5c0,0-154,312-47,429s576-161,603-10s-696,241-616,482s501,224,582,385s237,315,576,332
	s338,415,151,462s-1011-140-1011,295c0,0-64,528,388,599s563,44,563,178s-764,64-764,251s694,218,694,305s-774,0-774,298
	s958,164,958,288s-41,358-148,415"/>
</svg>
