<?xml version="1.0" encoding="utf-8"?>
<!-- Generator: Adobe Illustrator 27.9.0, SVG Export Plug-In . SVG Version: 6.00 Build 0)  -->
<svg width="1665" height="4335"version="1.1" id="Layer_1" xmlns="http://www.w3.org/2000/svg" xmlns:xlink="http://www.w3.org/1999/xlink" x="0px" y="0px"
	 viewBox="0 0 1665 4335" style="enable-background:new 0 0 1665 4335;" xml:space="preserve">
<style type="text/css">
	.pathhh{fill:none;stroke:#562DFF;stroke-width:5;stroke-miterlimit:10;}
</style>
<path class="pathhh" d="M75.8,417.8c242.3-181.4,518-358.6,603-285c39.4,34.1,30.3,115.6,9,169c-95.3,239-561,232.6-559,295
	c2.3,71.3,606.3-12.4,876,322c25.5,31.6,151.5,195.3,98,321c-95.5,224.2-680.3,134.2-697,241c-15.3,98.1,472,211.2,460,322
	c-13.9,128.2-678.4,93.7-701,236c-15.3,96.8,269.5,254.6,558,313c410,82.9,715.9-57.5,746,18c22.8,57.2-135.7,181.5-353,352
	c-224.8,176.3-312.4,212.2-312,282c0.8,140.6,446.1,137.7,469,277c30.7,186.7-716.7,379.6-693,580c21.1,179,638.6,201.4,643,335
	c2.7,83.1-233.4,161.5-486,223"/>
</svg>
