<?xml version="1.0" encoding="utf-8"?>
<!-- Generator: Adobe Illustrator 27.9.0, SVG Export Plug-In . SVG Version: 6.00 Build 0)  -->
<svg width="1665" height="4335" version="1.1" id="PathLine" xmlns="http://www.w3.org/2000/svg" xmlns:xlink="http://www.w3.org/1999/xlink" x="0px" y="0px"
	 viewBox="0 0 1665 4335" style="enable-background:new 0 0 1665 4335;" xml:space="preserve">
<style type="text/css">
	.PathLine{fill:none;stroke:#562DFF;stroke-width:3;stroke-miterlimit:10;}
</style>
<path class="PathLine" d="M-61.5,494c221-252,771.9-458.4,840-340c59,102.5-654.4,252.6-648,467c7,234,1139,190,1135,610
	c-2.3,243.7-806,132-818,281s464.1,157.1,421,327c-52,205-715,102-715,298s1208,56,1255,257c24.1,103.1-35.7,190.5-253,361
	c-224.8,176.3-350.4,203.2-350,273c0.8,140.6,446.1,137.7,469,277c30.7,186.7-737,243-737,585s642.4,125.5,697,323
	c32,115.5-236.4,196.5-489,258"/>
</svg>
