<?xml version="1.0" encoding="utf-8"?>
<!-- Generator: Adobe Illustrator 27.9.0, SVG Export Plug-In . SVG Version: 6.00 Build 0)  -->
<svg width="110" height="710" version="1.1" id="Layer_1" xmlns="http://www.w3.org/2000/svg" xmlns:xlink="http://www.w3.org/1999/xlink" x="0px" y="0px"
	 viewBox="0 0 110 710" style="enable-background:new 0 0 110 710;" xml:space="preserve">
<style type="text/css">
	.portfolioPath{fill:#572DFF;}
</style>
<g>
	<path class="portfolioPath" d="M23.85,706.49H5.89c-2.56,0-4.08-1.58-4.08-4.21v-30.89c0-13.99,3.18-25.04,9.44-32.86l0,0
		c6.35-7.92,15.5-11.94,27.21-11.94h2.58c5.95,0,11.39,1.02,16.16,3.03c4.8,2.02,8.94,5,12.31,8.86c3.35,3.85,5.95,8.61,7.73,14.16
		c1.76,5.5,2.66,11.81,2.66,18.75v2.13c0,0.25,0,0.51-0.01,0.76h22.29c2.56,0,4.08,1.58,4.08,4.21v21.2c0,2.56-1.53,4.08-4.08,4.08
		H32.9c-2.56,0-4.08-1.53-4.08-4.08v-21.2c0-2.64,1.53-4.21,4.08-4.21h20.84c0.01-0.26,0.02-0.51,0.02-0.76v-2.13
		c0-5.66-1.07-9.89-3.17-12.58c-2.05-2.61-5.3-3.88-9.93-3.88c-4.46,0-7.6,1.27-9.6,3.87c-2.07,2.69-3.11,6.93-3.11,12.59v30.89
		C27.94,704.91,26.41,706.49,23.85,706.49z M13.59,640.4L13.59,640.4c-5.83,7.27-8.78,17.7-8.78,30.99v30.89
		c0,1.1,0.31,1.21,1.08,1.21h17.96c0.77,0,1.08-0.11,1.08-1.21v-30.89c0-6.34,1.26-11.19,3.73-14.42c2.57-3.35,6.6-5.05,11.98-5.05
		c5.54,0,9.68,1.69,12.3,5.03c2.53,3.23,3.81,8.08,3.81,14.43v2.13c0,0.79-0.05,1.61-0.14,2.43l-0.15,1.33H32.9
		c-0.77,0-1.08,0.11-1.08,1.21v21.2c0,0.89,0.19,1.08,1.08,1.08h69.27c0.89,0,1.08-0.19,1.08-1.08v-21.2c0-1.1-0.31-1.21-1.08-1.21
		H76.59l0.19-1.67c0.08-0.71,0.12-1.41,0.12-2.09v-2.13c0-6.62-0.85-12.62-2.51-17.83c-1.65-5.16-4.05-9.57-7.13-13.11
		c-3.07-3.51-6.84-6.23-11.21-8.07c-4.4-1.85-9.44-2.79-14.99-2.79h-2.58C27.7,629.59,19.33,633.22,13.59,640.4z M24.24,620.67H5.89
		c-2.56,0-4.08-1.58-4.08-4.21v-30.37c0-8.78,0.84-16.48,2.5-22.87l0,0c1.69-6.47,4.33-11.89,7.86-16.1
		c3.56-4.24,8.19-7.41,13.76-9.43c5.48-1.99,12.09-3,19.64-3H68.7c7.48,0,13.82,1.01,18.84,3.02c5.08,2.02,9.22,4.96,12.3,8.71
		c3.06,3.73,5.24,8.21,6.5,13.32c1.23,5.01,1.85,10.61,1.85,16.64s-0.62,11.63-1.85,16.64c-1.26,5.11-3.45,9.58-6.51,13.27
		c-3.08,3.71-7.21,6.62-12.3,8.64c-5.02,2-11.36,3.02-18.84,3.02H33.29c-2.56,0-4.08-1.53-4.08-4.09v-20.94
		c0-2.64,1.53-4.21,4.08-4.21H67.8c4.95,0,8.56-0.92,10.73-2.75c2.09-1.76,3.15-4.98,3.15-9.58c0-4.6-1.06-7.85-3.16-9.65
		c-2.17-1.86-5.77-2.8-10.72-2.8H46.86c-3.04,0-5.79,0.29-8.18,0.86c-2.22,0.54-4.09,1.56-5.56,3.03c-1.49,1.5-2.67,3.65-3.5,6.42
		c-0.86,2.86-1.29,6.63-1.29,11.2v31.02C28.33,619.09,26.8,620.67,24.24,620.67z M7.21,563.97c-1.6,6.14-2.41,13.58-2.41,22.11
		v30.37c0,1.1,0.31,1.21,1.08,1.21h18.35c0.77,0,1.08-0.11,1.08-1.21v-31.02c0-4.86,0.48-8.92,1.42-12.06
		c0.97-3.24,2.4-5.82,4.25-7.67c1.87-1.87,4.22-3.15,6.98-3.82c2.62-0.63,5.6-0.95,8.88-0.95H67.8c5.68,0,9.95,1.19,12.67,3.53
		c2.79,2.4,4.21,6.42,4.21,11.93c0,5.52-1.42,9.52-4.22,11.88c-2.76,2.32-6.9,3.45-12.66,3.45H33.29c-0.77,0-1.08,0.11-1.08,1.21
		v20.94c0,0.89,0.19,1.09,1.08,1.09H68.7c7.1,0,13.07-0.94,17.73-2.8c4.61-1.83,8.35-4.45,11.1-7.77c2.77-3.34,4.75-7.4,5.9-12.07
		c1.17-4.77,1.77-10.13,1.77-15.93s-0.59-11.15-1.77-15.93c-1.15-4.67-3.14-8.75-5.91-12.14c-2.75-3.36-6.48-5.99-11.09-7.83
		c-4.67-1.86-10.63-2.8-17.73-2.8H45.57c-7.2,0-13.46,0.95-18.62,2.82c-5.06,1.84-9.26,4.71-12.48,8.54
		C11.22,552.91,8.78,557.93,7.21,563.97L7.21,563.97z M23.85,528.78H5.89c-2.56,0-4.08-1.58-4.08-4.21v-30.89
		c0-13.98,3.11-25.03,9.24-32.85l0,0c6.22-7.93,15.01-11.95,26.12-11.95h2.58c5.97,0,11.4,1.11,16.14,3.31
		c4.41,2.04,8.24,5.01,11.42,8.85l33.99-16.98c1.48-0.51,2.69-0.45,3.6,0.2c0.9,0.64,1.36,1.75,1.36,3.28v24.04
		c0,3.05-1.88,4.06-3.08,4.4L77.02,487c0.19,2.19,0.29,4.43,0.29,6.67v2.13c0,0.25,0,0.51-0.01,0.76h24.88
		c2.56,0,4.08,1.58,4.08,4.21v21.2c0,2.56-1.53,4.08-4.08,4.08H32.25c-2.56,0-4.08-1.53-4.08-4.08v-21.2c0-2.64,1.53-4.21,4.08-4.21
		h18.9c0.01-0.26,0.02-0.51,0.02-0.76v-2.13c0-5.69-0.95-9.95-2.83-12.65c-1.79-2.57-4.68-3.82-8.85-3.82
		c-4.16,0-7.03,1.24-8.78,3.8c-1.84,2.71-2.78,6.97-2.78,12.66v30.89C27.94,527.2,26.41,528.78,23.85,528.78z M13.4,462.68
		L13.4,462.68c-5.71,7.28-8.6,17.71-8.6,31v30.89c0,1.1,0.31,1.21,1.08,1.21h17.96c0.77,0,1.08-0.11,1.08-1.21v-30.89
		c0-6.31,1.11-11.13,3.3-14.35c2.31-3.39,6.1-5.12,11.26-5.12c5.15,0,8.96,1.72,11.31,5.1c2.24,3.21,3.37,8.05,3.37,14.36v2.13
		c0,0.79-0.05,1.61-0.14,2.43l-0.15,1.33H32.25c-0.77,0-1.08,0.11-1.08,1.21v21.2c0,0.89,0.19,1.08,1.08,1.08h69.92
		c0.89,0,1.08-0.19,1.08-1.08v-21.2c0-1.1-0.31-1.21-1.08-1.21H74l0.19-1.67c0.08-0.71,0.12-1.41,0.12-2.09v-2.13
		c0-2.52-0.13-5.03-0.38-7.47l-0.11-1.1l28.51-12.01c0.49-0.12,0.93-0.33,0.93-1.52v-24.04c0-0.57-0.09-0.79-0.13-0.85
		c-0.02,0.02-0.26,0-0.77,0.17l-35.91,17.96l-0.75-0.98c-3.02-3.92-6.75-6.92-11.07-8.92c-4.35-2.01-9.35-3.03-14.88-3.03h-2.58
		C26.87,451.88,19.1,455.41,13.4,462.68z M25.4,442.83H6.02c-2.64,0-4.21-1.48-4.21-3.96v-67.46c0-2.48,1.58-3.96,4.21-3.96H25.4
		c2.56,0,4.08,1.48,4.08,3.96v67.46C29.49,441.35,27.96,442.83,25.4,442.83z M6.02,370.46c-1.21,0-1.21,0.38-1.21,0.96v67.46
		c0,0.58,0,0.96,1.21,0.96H25.4c1.04,0,1.08-0.29,1.08-0.96v-67.46c0-0.66-0.04-0.96-1.08-0.96H6.02z M102.3,420.22H34.32
		c-2.48,0-3.96-1.53-3.96-4.08v-21.84c0-2.64,1.48-4.21,3.96-4.21h67.98c2.48,0,3.96,1.58,3.96,4.21v21.84
		C106.26,418.69,104.78,420.22,102.3,420.22z M34.32,393.08c-0.58,0-0.96,0-0.96,1.21v21.84c0,1.04,0.29,1.08,0.96,1.08h67.98
		c0.66,0,0.96-0.04,0.96-1.08v-21.84c0-1.21-0.38-1.21-0.96-1.21H34.32z M24.5,364.12H5.89c-2.56,0-4.08-1.58-4.08-4.21v-59.97
		c0-2.56,1.53-4.08,4.08-4.08h18.48c2.64,0,4.21,1.53,4.21,4.08v59.97C28.58,362.55,27.06,364.12,24.5,364.12z M5.89,298.86
		c-0.89,0-1.08,0.19-1.08,1.08v59.97c0,1.1,0.31,1.21,1.08,1.21H24.5c0.77,0,1.08-0.11,1.08-1.21v-59.97c0-0.77-0.11-1.08-1.21-1.08
		H5.89z M102.17,361.41H33.55c-2.56,0-4.08-1.53-4.08-4.08v-21.84c0-2.64,1.53-4.21,4.08-4.21h13.88v-26.42
		c0-2.48,1.53-3.96,4.09-3.96h16.41c2.64,0,4.21,1.48,4.21,3.96v26.42h29.91c2.64,0,4.21,1.48,4.21,3.96v21.97
		C106.26,359.84,104.73,361.41,102.17,361.41z M33.55,334.27c-0.77,0-1.08,0.11-1.08,1.21v21.84c0,0.89,0.19,1.08,1.08,1.08h68.63
		c0.77,0,1.08-0.11,1.08-1.21v-21.97c0-0.58,0-0.96-1.21-0.96H69.14v-29.42c0-0.58,0-0.96-1.21-0.96H51.51
		c-1.04,0-1.09,0.29-1.09,0.96v29.42H33.55z M24.24,291.23H5.89c-2.56,0-4.08-1.58-4.08-4.21v-30.37c0-8.78,0.84-16.48,2.5-22.87
		c1.69-6.48,4.33-11.89,7.86-16.1c3.56-4.24,8.19-7.41,13.76-9.43c5.48-1.99,12.09-3,19.64-3H68.7c7.48,0,13.82,1.01,18.84,3.01
		c5.08,2.02,9.22,4.96,12.3,8.71c3.06,3.73,5.24,8.21,6.5,13.32c1.23,5.01,1.85,10.61,1.85,16.64c0,6.04-0.62,11.63-1.85,16.64v0
		c-1.26,5.11-3.45,9.58-6.51,13.27c-3.07,3.71-7.21,6.62-12.3,8.64c-5.02,2-11.36,3.01-18.84,3.01H33.29
		c-2.56,0-4.08-1.53-4.08-4.08V263.5c0-2.64,1.53-4.21,4.08-4.21H67.8c4.95,0,8.56-0.93,10.73-2.75c2.09-1.76,3.15-4.98,3.15-9.58
		c0-4.6-1.06-7.85-3.16-9.65c-2.17-1.86-5.77-2.8-10.72-2.8H46.86c-3.05,0-5.8,0.29-8.18,0.86c-2.22,0.54-4.09,1.55-5.56,3.03
		c-1.49,1.5-2.67,3.65-3.5,6.41c-0.86,2.86-1.29,6.63-1.29,11.2v31.02C28.33,289.66,26.8,291.23,24.24,291.23z M45.57,208.26
		c-7.2,0-13.46,0.95-18.62,2.82c-5.06,1.84-9.26,4.71-12.48,8.54c-3.24,3.86-5.68,8.88-7.26,14.92c-1.6,6.14-2.41,13.58-2.41,22.11
		v30.37c0,1.1,0.31,1.21,1.08,1.21h18.35c0.77,0,1.08-0.11,1.08-1.21V256c0-4.86,0.48-8.92,1.42-12.06c0.97-3.24,2.4-5.82,4.25-7.67
		c1.87-1.87,4.22-3.15,6.98-3.82c2.61-0.63,5.6-0.95,8.88-0.95H67.8c5.68,0,9.95,1.19,12.67,3.53c2.79,2.4,4.21,6.41,4.21,11.93
		c0,5.52-1.42,9.52-4.22,11.87c-2.76,2.33-6.9,3.46-12.66,3.46H33.29c-0.77,0-1.08,0.11-1.08,1.21v20.94c0,0.89,0.19,1.08,1.08,1.08
		H68.7c7.1,0,13.06-0.94,17.73-2.8c4.61-1.84,8.35-4.45,11.1-7.77c2.77-3.34,4.75-7.4,5.9-12.07l0,0
		c1.17-4.77,1.77-10.13,1.77-15.93c0-5.79-0.59-11.15-1.77-15.93c-1.15-4.67-3.14-8.75-5.91-12.14c-2.75-3.36-6.49-5.99-11.09-7.83
		c-4.67-1.86-10.63-2.8-17.73-2.8H45.57z M102.04,196.63H5.76c-2.48,0-3.96-1.53-3.96-4.08V170.7c0-2.64,1.48-4.22,3.96-4.22h72.3
		v-29.65c0-2.48,1.53-3.96,4.08-3.96h19.9c2.64,0,4.21,1.48,4.21,3.96v55.7C106.26,195.1,104.68,196.63,102.04,196.63z M5.76,169.49
		c-0.58,0-0.96,0-0.96,1.22v21.84c0,1.04,0.29,1.08,0.96,1.08h96.29c1.1,0,1.21-0.31,1.21-1.08v-55.7c0-0.58,0-0.96-1.21-0.96h-19.9
		c-1,0-1.08,0.25-1.08,0.96v32.65H5.76z M102.04,126.84H5.76c-2.48,0-3.96-1.53-3.96-4.08v-21.84c0-2.64,1.48-4.21,3.96-4.21h96.29
		c2.64,0,4.21,1.53,4.21,4.09v21.97C106.26,125.31,104.68,126.84,102.04,126.84z M5.76,99.7c-0.58,0-0.96,0-0.96,1.21v21.84
		c0,1.04,0.29,1.08,0.96,1.08h96.29c1.1,0,1.21-0.31,1.21-1.08v-21.97c0-0.77-0.11-1.09-1.21-1.09H5.76z M24.24,89.49H5.89
		c-2.56,0-4.08-1.58-4.08-4.21V54.9c0-8.78,0.84-16.48,2.5-22.87c1.69-6.47,4.33-11.89,7.86-16.1c3.56-4.24,8.19-7.41,13.76-9.43
		c5.48-1.99,12.09-3,19.64-3H68.7c7.48,0,13.82,1.01,18.84,3.01c5.08,2.02,9.22,4.96,12.3,8.71c3.06,3.73,5.24,8.21,6.5,13.32
		c1.23,5.01,1.85,10.61,1.85,16.64c0,6.03-0.62,11.63-1.85,16.64v0c-1.26,5.11-3.45,9.58-6.51,13.27c-3.07,3.71-7.21,6.62-12.3,8.64
		c-5.02,2-11.36,3.01-18.84,3.01H33.29c-2.56,0-4.08-1.53-4.08-4.08V61.75c0-2.64,1.53-4.21,4.08-4.21H67.8
		c4.95,0,8.56-0.93,10.73-2.75c2.09-1.76,3.15-4.98,3.15-9.58c0-4.6-1.06-7.85-3.16-9.65c-2.17-1.86-5.77-2.8-10.72-2.8H46.86
		c-3.05,0-5.8,0.29-8.18,0.86c-2.22,0.54-4.09,1.55-5.56,3.03c-1.49,1.49-2.67,3.65-3.5,6.41c-0.86,2.86-1.29,6.63-1.29,11.2v31.02
		C28.33,87.91,26.8,89.49,24.24,89.49z M45.57,6.51c-7.2,0-13.46,0.95-18.62,2.82c-5.06,1.84-9.26,4.71-12.48,8.54
		c-3.24,3.86-5.68,8.88-7.26,14.92C5.61,38.93,4.8,46.37,4.8,54.9v30.37c0,1.1,0.31,1.21,1.08,1.21h18.35
		c0.77,0,1.08-0.11,1.08-1.21V54.25c0-4.86,0.48-8.92,1.42-12.06c0.97-3.24,2.4-5.83,4.25-7.67c1.87-1.87,4.21-3.16,6.98-3.82
		c2.61-0.63,5.6-0.95,8.88-0.95H67.8c5.68,0,9.95,1.19,12.67,3.53c2.79,2.4,4.21,6.42,4.21,11.93c0,5.52-1.42,9.52-4.22,11.87
		c-2.76,2.32-6.9,3.45-12.66,3.45H33.29c-0.77,0-1.08,0.11-1.08,1.21v20.94c0,0.89,0.19,1.08,1.08,1.08H68.7
		c7.1,0,13.07-0.94,17.73-2.8c4.61-1.84,8.35-4.45,11.1-7.77c2.77-3.34,4.75-7.4,5.9-12.07c1.17-4.77,1.77-10.13,1.77-15.93
		c0-5.79-0.59-11.15-1.77-15.93c-1.15-4.67-3.14-8.76-5.91-12.14c-2.75-3.36-6.49-6-11.09-7.83c-4.67-1.86-10.63-2.8-17.73-2.8
		H45.57z"/>
</g>
</svg>
