<?xml version="1.0" encoding="utf-8"?>
<!-- Generator: Adobe Illustrator 27.9.0, SVG Export Plug-In . SVG Version: 6.00 Build 0)  -->
<svg version="1.1" id="Layer_1" xmlns="http://www.w3.org/2000/svg" xmlns:xlink="http://www.w3.org/1999/xlink" x="0px" y="0px"
	 viewBox="0 0 300 70" style="enable-background:new 0 0 300 70;" xml:space="preserve">
<style type="text/css">
	.st0{fill:#572DFF;}
</style>
<g>
	<path class="st0" d="M124.2,62.66c-3.45,0-6.65-0.36-9.52-1.06c-2.97-0.73-5.57-2.01-7.73-3.79c-2.17-1.8-3.87-4.21-5.05-7.18
		c-1.16-2.91-1.74-6.55-1.74-10.84V19.87c0-0.92,0.31-1.67,0.84-2.19c-1.46-0.25-2.37-1.33-2.37-2.9V4.45
		c0-1.79,1.19-2.95,3.03-2.95h17.09c5,0,9.38,0.48,13.03,1.43c3.74,0.97,6.87,2.51,9.31,4.56c2.47,2.08,4.32,4.78,5.5,8.02
		c1.15,3.15,1.73,6.95,1.73,11.27v13.01c0,4.29-0.59,7.94-1.74,10.84c-1.18,2.96-2.89,5.38-5.1,7.18l0,0
		c-2.18,1.78-4.78,3.06-7.75,3.79C130.85,62.31,127.65,62.66,124.2,62.66z M103.16,19.91v19.88c0,3.91,0.51,7.18,1.53,9.73
		c0.99,2.49,2.4,4.5,4.18,5.98c1.8,1.49,4,2.57,6.53,3.19c2.63,0.65,5.59,0.97,8.8,0.97s6.17-0.33,8.8-0.97
		c2.53-0.62,4.74-1.7,6.57-3.19l0,0c1.8-1.48,3.22-3.49,4.21-5.97c1.02-2.55,1.53-5.82,1.53-9.73V26.77c0-3.97-0.52-7.42-1.55-10.25
		c-0.99-2.74-2.54-5.01-4.61-6.74c-2.09-1.76-4.83-3.09-8.14-3.95c-3.4-0.88-7.53-1.33-12.27-1.33h-17.09c-0.01,0-0.02,0-0.03,0
		v10.23c0.01,0,0.02,0,0.03,0h17.45c2.8,0,5.15,0.28,6.97,0.83c1.93,0.58,3.47,1.44,4.59,2.56c1.14,1.14,1.92,2.56,2.32,4.24
		c0.37,1.52,0.55,3.25,0.55,5.15v11.78c0,3.41-0.7,5.88-2.14,7.56c-1.48,1.72-3.91,2.59-7.21,2.59c-3.31,0-5.73-0.88-7.18-2.6
		c-1.41-1.68-2.1-4.15-2.1-7.55V19.91c-0.01,0-0.02,0-0.03,0H103.16z M117.11,17.73c0.52,0.51,0.81,1.25,0.81,2.14v19.41
		c0,2.63,0.47,4.52,1.39,5.61c0.86,1.02,2.5,1.54,4.89,1.54c2.39,0,4.05-0.52,4.93-1.55c0.94-1.1,1.42-2.98,1.42-5.6V27.5
		c0-1.66-0.16-3.16-0.47-4.45c-0.28-1.14-0.78-2.06-1.53-2.82c-0.76-0.76-1.88-1.37-3.33-1.8c-1.55-0.46-3.61-0.7-6.11-0.7H117.11z
		 M115.11,19.94L115.11,19.94L115.11,19.94z M101.45,14.71L101.45,14.71L101.45,14.71z M290.11,61.57H257.4
		c-1.84,0-3.03-1.16-3.03-2.95V19.29c0-0.92,0.3-1.67,0.84-2.19c-1.46-0.25-2.37-1.33-2.37-2.9V4.45c0-1.79,1.19-2.95,3.03-2.95
		h33.74c1.79,0,2.95,1.16,2.95,2.95v9.67c0,1.84-1.16,3.03-2.95,3.03h-17.78c0.52,0.51,0.81,1.25,0.81,2.14v4.75h14.21
		c1.75,0,2.88,1.16,2.88,2.95v8.51c0,1.84-1.13,3.03-2.88,3.03h-14.21v7.4h17.48c1.75,0,2.88,1.16,2.88,2.95v9.67
		C293,60.39,291.86,61.57,290.11,61.57z M257.37,58.57c0.01,0,0.02,0,0.03,0H290c0-0.01,0-0.02,0-0.03v-9.62h-20.36v-13.4h17.09
		c0-0.01,0-0.02,0-0.03v-8.46h-17.09v-7.71c-0.01,0-0.02,0-0.03,0h-12.24V58.57z M290.23,48.93L290.23,48.93L290.23,48.93z
		 M289.98,48.69L289.98,48.69L289.98,48.69z M289.54,14.34L289.54,14.34L289.54,14.34z M255.84,14.15c0.01,0,0.02,0,0.03,0h33.69
		c0-0.01,0-0.02,0-0.03V4.5h-33.69c-0.01,0-0.02,0-0.03,0V14.15z M255.65,4.52L255.65,4.52L255.65,4.52z M249.47,61.57h-31.34
		c-1.79,0-2.95-1.19-2.95-3.03V4.38c0-1.75,1.16-2.88,2.95-2.88h12.29c1.84,0,3.03,1.13,3.03,2.88V44.4h16.02
		c1.75,0,2.88,1.16,2.88,2.95v11.2C252.35,60.39,251.22,61.57,249.47,61.57z M218.2,58.76L218.2,58.76L218.2,58.76z M218.18,58.57
		h31.17c0-0.01,0-0.02,0-0.03V47.4h-18.9V4.5c-0.01,0-0.02,0-0.03,0h-12.24v54.05C218.18,58.56,218.18,58.56,218.18,58.57z
		 M208.03,61.57h-12.36c-1.79,0-2.95-1.19-2.95-3.03V4.38c0-1.75,1.16-2.88,2.95-2.88h12.29c1.84,0,3.03,1.13,3.03,2.88v54.17
		C210.98,60.39,209.82,61.57,208.03,61.57z M195.71,58.57h12.27c0-0.01,0-0.02,0-0.03V4.5c-0.01,0-0.02,0-0.03,0h-12.24v54.05
		C195.71,58.56,195.71,58.56,195.71,58.57z M195.72,4.27L195.72,4.27L195.72,4.27z M167.17,61.57h-12.36
		c-1.84,0-3.03-1.16-3.03-2.95V20.01c0-0.92,0.3-1.67,0.84-2.19c-1.46-0.25-2.37-1.33-2.37-2.9V4.45c0-1.79,1.19-2.95,3.03-2.95
		h33.73c1.79,0,2.95,1.16,2.95,2.95v10.4c0,1.84-1.16,3.03-2.95,3.03h-17.78c0.52,0.51,0.81,1.25,0.81,2.14v7.15h14.21
		c1.75,0,2.88,1.16,2.88,2.95v9.23c0,1.84-1.13,3.03-2.88,3.03h-14.21v16.17C170.05,60.39,168.92,61.57,167.17,61.57z M154.78,58.57
		c0.01,0,0.02,0,0.03,0h12.24c0-0.01,0-0.02,0-0.03V39.38h17.09c0-0.01,0-0.02,0-0.03v-9.19h-17.09V20.06c-0.01,0-0.02,0-0.03,0
		h-12.24V58.57z M154.59,58.55L154.59,58.55L154.59,58.55z M186.95,15.07L186.95,15.07L186.95,15.07z M153.25,14.88
		c0.01,0,0.02,0,0.03,0h33.69c0-0.01,0-0.02,0-0.03V4.5h-33.69c-0.01,0-0.02,0-0.03,0V14.88z M153.07,14.86L153.07,14.86
		C153.07,14.86,153.07,14.86,153.07,14.86z M96.06,61.57H82.54c-1.55,0-2.7-0.81-3.09-2.17l-6.01-14.24
		c-1.1,0.08-2.21,0.13-3.33,0.13h-0.97v13.33c0,1.79-1.19,2.95-3.03,2.95H54.19c-1.79,0-2.95-1.16-2.95-2.95V19.29
		c0-0.75,0.2-1.39,0.57-1.88c-1.3-0.33-2.1-1.37-2.1-2.84V4.45c0-1.79,1.19-2.95,3.03-2.95h17.38c8.02,0,14.37,1.8,18.88,5.34
		c4.63,3.63,6.97,8.75,6.97,15.21v1.45c0,3.45-0.65,6.6-1.92,9.35c-1.12,2.41-2.71,4.53-4.76,6.31l9.35,18.74
		c0.36,1.04,0.3,1.93-0.2,2.62C98.11,61.01,97.42,61.57,96.06,61.57z M82.31,58.55c-0.03,0,0.05,0.03,0.23,0.03h13.09L85.52,38.34
		l0.98-0.75c2.12-1.63,3.74-3.65,4.83-5.99c1.09-2.36,1.64-5.08,1.64-8.09v-1.45c0-5.58-1.91-9.78-5.82-12.85
		c-3.97-3.12-9.71-4.7-17.03-4.7H52.73c-0.01,0-0.02,0-0.03,0v10.01c0.01,0,0.02,0,0.03,0h17.38c3.73,0,6.5,0.64,8.44,1.97
		c2.1,1.43,3.16,3.74,3.16,6.87c0,3.13-1.06,5.45-3.15,6.9c-1.95,1.35-4.71,2.01-8.46,2.01h-1.2c-0.47,0-0.95-0.03-1.44-0.08
		l-1.34-0.15V19.33c-0.01,0-0.02,0-0.03,0H54.23v39.24h11.88c0.01,0,0.02,0,0.03,0V42.04l1.67,0.19c0.37,0.04,0.75,0.06,1.11,0.06
		h1.2c1.4,0,2.79-0.07,4.14-0.21l1.1-0.11l6.98,16.58C82.32,58.55,82.32,58.55,82.31,58.55z M69.13,29.27h0.97
		c3.07,0,5.33-0.5,6.74-1.48c1.25-0.87,1.86-2.33,1.86-4.44c0-2.11-0.61-3.55-1.85-4.39c-1.41-0.96-3.68-1.45-6.75-1.45h-1.48
		c0.33,0.47,0.51,1.08,0.51,1.77V29.27z M66.12,19.14L66.12,19.14L66.12,19.14z M52.72,14.7L52.72,14.7L52.72,14.7z M17.9,61.57
		H5.98c-1.79,0-2.95-1.16-2.95-2.95V19.65c0-0.92,0.3-1.67,0.84-2.19c-1.46-0.25-2.37-1.33-2.37-2.9V4.45
		c0-1.79,1.19-2.95,3.03-2.95H21.9c8.02,0,14.38,1.84,18.9,5.46c4.62,3.7,6.96,9.02,6.96,15.82v1.45c0,3.43-0.59,6.58-1.75,9.34
		c-1.17,2.79-2.91,5.2-5.16,7.16l0,0c-2.23,1.95-4.99,3.45-8.2,4.48c-3.16,1.01-6.78,1.53-10.74,1.53h-0.97v11.88
		C20.93,60.41,19.74,61.57,17.9,61.57z M6.03,58.57H17.9c0.01,0,0.02,0,0.03,0V43.49l1.67,0.19c0.38,0.04,0.75,0.06,1.1,0.06h1.2
		c3.66,0,6.96-0.47,9.83-1.38c2.81-0.9,5.22-2.21,7.14-3.88c1.9-1.66,3.37-3.7,4.36-6.07c1.01-2.4,1.52-5.15,1.52-8.18v-1.45
		c0-5.92-1.91-10.33-5.84-13.48c-3.97-3.18-9.7-4.8-17.02-4.8H4.53c-0.01,0-0.02,0-0.03,0v10.01c0.01,0,0.02,0,0.03,0H21.9
		c3.77,0,6.55,0.73,8.51,2.24c2.05,1.58,3.1,4.02,3.1,7.26c0,3.33-1.04,5.83-3.08,7.43c-1.96,1.53-4.75,2.28-8.52,2.28h-1.2
		c-0.48,0-0.96-0.03-1.44-0.08l-1.33-0.15v-13.8c-0.01,0-0.02,0-0.03,0H6.03V58.57z M20.93,30.73h0.97c3.03,0,5.28-0.55,6.67-1.64
		c1.3-1.02,1.93-2.68,1.93-5.07c0-2.29-0.63-3.89-1.92-4.88c-1.4-1.07-3.65-1.62-6.68-1.62h-1.78c0.52,0.51,0.81,1.25,0.81,2.14
		V30.73z M18.12,19.72L18.12,19.72L18.12,19.72z"/>
</g>
</svg>
