<?xml version="1.0" encoding="utf-8"?>
<!-- Generator: Adobe Illustrator 27.9.0, SVG Export Plug-In . SVG Version: 6.00 Build 0)  -->
<svg width="160" height="550" version="1.1" id="Layer_1" xmlns="http://www.w3.org/2000/svg" xmlns:xlink="http://www.w3.org/1999/xlink" x="0px" y="0px"
	 viewBox="0 0 160 550" style="enable-background:new 0 0 160 550;" xml:space="preserve">
<style type="text/css">
	.skillpath{fill:#572DFF;}
</style>
<g>
	<path class="skillpath" d="M135.25,547.96l-22.69-18.91l1.07-1.16c10.02-10.84,16-24.52,16-36.59c0-14.05-5.65-22.1-15.5-22.1
		c-9.61,0-12.78,7.48-18.03,19.88l-9,21.21c-5.83,14.1-17.71,30.92-41.19,30.92c-12.25,0-23.48-5.29-31.62-14.88
		c-8.18-9.64-12.68-23.08-12.68-37.83c0-18.01,7.09-35.32,19.45-47.48l0.95-0.94l20.83,16.8l-0.97,1.17
		c-8.09,9.75-11.86,19.42-11.86,30.45c0,12.46,5.27,19.9,14.1,19.9c9.2,0,12.85-9.23,17.47-20.91l0.54-1.35l8.21-19.43
		C78.96,445.76,92.17,436,111.93,436c12.61,0,24.19,5.29,32.61,14.89c8.96,10.22,13.7,24.41,13.7,41.02
		c0,20.38-8.03,40.44-22.02,55.04L135.25,547.96z M116.89,528.75l18.12,15.1c12.87-13.96,20.23-32.81,20.23-51.95
		c0-15.87-4.48-29.38-12.96-39.04c-7.84-8.94-18.62-13.87-30.35-13.87c-18.64,0-30.61,8.91-38.82,28.87l-8.73,20.73
		c-4.84,12.23-9.02,22.8-20.26,22.8c-10.55,0-17.1-8.78-17.1-22.9c0-11.31,3.69-21.26,11.59-31.18l-16.38-13.21
		C11.02,455.65,4.62,471.75,4.62,488.5c0,28.8,17.37,49.71,41.31,49.71c21.82,0,32.94-15.81,38.42-29.08l9-21.22
		c5.33-12.61,9.19-21.71,20.79-21.71c11.58,0,18.5,9.38,18.5,25.1C132.63,503.67,126.77,517.57,116.89,528.75z M155.44,412.81H4.42
		v-32.6h62.06L4.42,332.84v-36.41l59.82,46.46l91.2-54.03v36.1l-65.23,37.53l22.64,17.71h42.59V412.81z M7.42,409.81h145.02v-26.6
		h-40.62l-26.96-21.09l67.59-38.88v-29.11l-88.43,52.39L7.42,302.56v28.8l64.21,49.01v2.84H7.42V409.81z M155.44,275.61H4.42v-32.6
		h151.02V275.61z M7.42,272.61h145.02v-26.6H7.42V272.61z M155.44,209.61H4.42v-32.6h123.22V117h27.8V209.61z M7.42,206.61h145.02
		V120h-21.8v60.01H7.42V206.61z M155.44,94.22H4.42v-32.6h123.22V1.6h27.8V94.22z M7.42,91.22h145.02V4.6h-21.8v60.01H7.42V91.22z"
		/>
</g>
</svg>
